<svg id="Group_5348" data-name="Group 5348" xmlns="http://www.w3.org/2000/svg" xmlns:xlink="http://www.w3.org/1999/xlink" width="49.33" height="31.601" viewBox="0 0 49.33 31.601">
  <defs>
    <clipPath id="clip-path">
      <rect id="Rectangle_1340" data-name="Rectangle 1340" width="49.33" height="31.601" fill="none"/>
    </clipPath>
  </defs>
  <g id="Group_5347" data-name="Group 5347" clip-path="url(#clip-path)">
    <path id="Path_10231" data-name="Path 10231" d="M24.666,0q10.148,0,20.3,0C45.441,0,45.922,0,46.4.036a2.963,2.963,0,0,1,2.871,2.707,6.715,6.715,0,0,1,.058.969q0,12.084,0,24.168a7.087,7.087,0,0,1-.1,1.243A2.9,2.9,0,0,1,46.863,31.5a6.28,6.28,0,0,1-1.151.1q-21.037.008-42.075,0a6.609,6.609,0,0,1-1.061-.078A2.949,2.949,0,0,1,.04,28.79C0,28.33,0,27.865,0,27.4Q0,15.781,0,4.159c0-.432,0-.865.033-1.3A2.946,2.946,0,0,1,2.659.071,12.255,12.255,0,0,1,4.231,0Q14.449,0,24.666,0m-.027,30.572h20.2c.417,0,.835.008,1.251-.018a2.052,2.052,0,0,0,2.187-2.141c.016-.184.018-.37.018-.555q0-12.039,0-24.078a6.6,6.6,0,0,0-.081-1.06A1.882,1.882,0,0,0,46.546,1.1,9.5,9.5,0,0,0,45.3,1.029q-20.645-.006-41.29,0A9.656,9.656,0,0,0,2.763,1.1,1.878,1.878,0,0,0,1.108,2.682a5.769,5.769,0,0,0-.083,1.013q-.006,12.109,0,24.216a5.66,5.66,0,0,0,.085,1.013,1.855,1.855,0,0,0,1.615,1.563,10.654,10.654,0,0,0,1.477.082q10.218.007,20.436,0" transform="translate(0 0)"/>
    <path id="Path_10232" data-name="Path 10232" d="M31.425,41.88c-.161.139-.266.228-.369.319a2.644,2.644,0,0,0,.306,4.307c.311.2.367.381.194.66-.453.731-.87,1.49-1.391,2.17a1.448,1.448,0,0,1-1.879.423,2.825,2.825,0,0,0-2.542.005,1.342,1.342,0,0,1-1.636-.216,6.835,6.835,0,0,1-2.081-6.357,2.879,2.879,0,0,1,4.06-2.109,1.821,1.821,0,0,0,1.641-.033,2.92,2.92,0,0,1,2.841.108,6.969,6.969,0,0,1,.858.722" transform="translate(-15.625 -29.082)"/>
    <path id="Path_10233" data-name="Path 10233" d="M69.333,40.807v3.82c-.519,0-.993.015-1.464-.014-.088-.005-.228-.184-.235-.29-.027-.431-.013-.863-.013-1.3V33.494a2.65,2.65,0,0,1,.321-.045c1.328,0,2.657-.025,3.984.007a3.436,3.436,0,0,1,3.47,2.823,3.575,3.575,0,0,1-1.932,4.145,5.741,5.741,0,0,1-1.794.369c-.749.061-1.507.015-2.338.015m.027-1.456c.791,0,1.53.006,2.268,0a2.429,2.429,0,0,0,.546-.089,1.952,1.952,0,0,0,1.533-1.947,2,2,0,0,0-1.32-2.239,11.583,11.583,0,0,0-3.027-.181Z" transform="translate(-48.275 -23.874)"/>
    <path id="Path_10234" data-name="Path 10234" d="M103.535,52h-1.516V50.83l-.164-.09a.731.731,0,0,1-.08.214,3.128,3.128,0,0,1-3.761.872,2.25,2.25,0,0,1-1.348-2.189A1.969,1.969,0,0,1,98.115,47.7a12.613,12.613,0,0,1,2.13-.382c.534-.071,1.076-.075,1.606-.108a1.441,1.441,0,0,0-.717-1.888,1.888,1.888,0,0,0-2.35.6.6.6,0,0,1-.675.388c-.32-.024-.642-.005-1.124-.005a5.015,5.015,0,0,1,.5-1.183,3.19,3.19,0,0,1,1.079-.909,4.1,4.1,0,0,1,3.668.035,2.239,2.239,0,0,1,1.342,2.066c.031,1.836.009,3.672.008,5.509a1.032,1.032,0,0,1-.047.184m-1.64-3.639c-.654.041-1.269.061-1.88.125a4.272,4.272,0,0,0-1.031.226.94.94,0,0,0-.639.93.978.978,0,0,0,.646.977,2.225,2.225,0,0,0,2.24-.256,1.879,1.879,0,0,0,.664-2" transform="translate(-69.013 -31.267)"/>
    <path id="Path_10235" data-name="Path 10235" d="M124.167,54.016c.111-.006.186-.013.261-.013a1.564,1.564,0,0,0,1.781-1.532,1.154,1.154,0,0,0-.1-.53q-1.286-3.6-2.584-7.187c-.056-.156-.1-.315-.18-.543.567,0,1.074-.023,1.576.017.116.01.267.222.314.369.6,1.883,1.175,3.771,1.76,5.657.045.146.1.289.19.567.094-.257.154-.4.2-.549.586-1.886,1.176-3.77,1.747-5.66.091-.3.217-.434.545-.411.413.029.829.007,1.308.007-.057.194-.091.335-.14.471q-1.433,4.035-2.871,8.067a8.584,8.584,0,0,1-.4.937,2.839,2.839,0,0,1-3.413,1.594Z" transform="translate(-88.064 -31.555)"/>
    <path id="Path_10236" data-name="Path 10236" d="M39.078,33.312a2.569,2.569,0,0,1,2.295-2.721,2.371,2.371,0,0,1-2.295,2.721" transform="translate(-27.884 -21.84)"/>
  </g>
</svg>
