<svg xmlns="http://www.w3.org/2000/svg" xmlns:xlink="http://www.w3.org/1999/xlink" width="25.011" height="29.133" viewBox="0 0 25.011 29.133">
  <defs>
    <clipPath id="clip-path">
      <rect id="Rectangle_1341" data-name="Rectangle 1341" width="25.011" height="29.133" fill="none"/>
    </clipPath>
  </defs>
  <g id="Group_5350" data-name="Group 5350" transform="translate(0 0)">
    <g id="Group_5349" data-name="Group 5349" transform="translate(0 0)" clip-path="url(#clip-path)">
      <path id="Path_10237" data-name="Path 10237" d="M14.963.053a7.309,7.309,0,0,1,2.8.836,8.312,8.312,0,0,1,4.522,6.323,1.347,1.347,0,0,1,.006.171,1.2,1.2,0,0,0-.018.337c0,.055.058.023.026.029-.008,0-.01,0-.013-.01a.167.167,0,0,1,.02-.178.63.63,0,0,1,.032.315,6.241,6.241,0,0,0,0,1.03c0,.076-.008.152-.013.228a2.251,2.251,0,0,1-.091,1.016,8.507,8.507,0,0,1-6.951,6.571,2.2,2.2,0,0,1-.634.049.859.859,0,0,0-.221-.015H8.851a.769.769,0,0,0-.195.013.166.166,0,0,0-.059.051c-.02.05-.026.1-.043.155-.269,1.974-.549,3.945-.825,5.917-.123.877-.238,1.754-.373,2.629a1.015,1.015,0,0,1-.093.355.114.114,0,0,1-.075.042c-.366-.027-.734.013-1.1-.024A.825.825,0,0,1,6,25.874c-.459-.026-.917-.01-1.376-.01q-2.052,0-4.1,0a.485.485,0,0,0-.174.017A.47.47,0,0,1,0,25.546a2.2,2.2,0,0,1,.026-.536c.074-.529.155-1.057.223-1.587.008-.063.035-.126,0-.189a2.175,2.175,0,0,1,.085-.558c.03.02.043.04.006.066.034-.006.029-.034.028-.056,0-.047.012-.1-.02-.141A2.576,2.576,0,0,1,.443,21.9a2.566,2.566,0,0,0,.1-.786,7.148,7.148,0,0,1,.137-.948c.043.045.026.1.028.154a4.2,4.2,0,0,1,.074-.662c.046-.431.121-.856.176-1.285.036-.246.071-.492.1-.738.026-.23.078-.456.095-.687.027-.146.038-.3.07-.441.038-.315.082-.63.128-.943.039-.245.074-.492.1-.739.057-.37.1-.742.162-1.112.036-.319.081-.636.128-.953.034-.246.074-.492.1-.74.045-.231.07-.465.1-.7.12-.873.246-1.746.366-2.619.009-.064.036-.127,0-.19a2.85,2.85,0,0,1,.089-.6c.028.013.017.047.035.065-.009-.3.1-.587.076-.888.061-.549.132-1.1.234-1.639a.163.163,0,0,1,.028.139c-.02-.111.042-.264.02-.424A3.108,3.108,0,0,1,2.9,4.379,3.991,3.991,0,0,0,3.033,3.6c.046-.225.074-.453.1-.682.034-.258.076-.514.113-.771.038-.4.114-.791.161-1.188A.261.261,0,0,0,3.4.787c.022-.5.133-.678.489-.781a.54.54,0,0,0,.219.017H14.252A.541.541,0,0,0,14.47.006a.6.6,0,0,1,.313.032c-.045.042-.092.057-.143.008,0,0,0,.006,0,.027a1.179,1.179,0,0,0,.32-.02" transform="translate(0 0)" fill="#253b7f"/>
      <path id="Path_10238" data-name="Path 10238" d="M12.5,34.471c.229-1.592.462-3.183.687-4.774.191-1.35.372-2.7.559-4.051a.956.956,0,0,1,.041-.138c.061-.167.2-.159.342-.159q.96,0,1.919,0,1.7,0,3.4,0a.726.726,0,0,0,.195-.012l.073-.037a.906.906,0,0,1,.277.01,8.292,8.292,0,0,0,6.535-4.186,8.014,8.014,0,0,0,1.079-3.4c0,.141.117.188.2.258a6.969,6.969,0,0,1,2.419,4.071.8.8,0,0,1,.006.122c-.063.156.016.3.028.455a7.493,7.493,0,0,1-.014,1.494c-.012.1-.062.206-.015.313a6.558,6.558,0,0,1-1.724,3.515,7.123,7.123,0,0,1-4.7,2.289,1.086,1.086,0,0,1-.123,0,.569.569,0,0,0-.219-.016q-2.337,0-4.674,0c-.073,0-.164-.048-.221.045q-.145.982-.29,1.964a.076.076,0,0,1-.027-.086c-.02,0-.005.019-.006.026-.018.355-.095.7-.136,1.056a.262.262,0,0,0,.005.165q-.179,1.285-.359,2.57c-.057.4-.119.807-.173,1.212a.574.574,0,0,1-.449.542.431.431,0,0,0-.17-.015H11.506a.371.371,0,0,0-.17.018.509.509,0,0,1-.437-.39,2.264,2.264,0,0,0,0-.388q.213-1.206.425-2.412A.115.115,0,0,1,11.4,34.5c.346.02.692.005,1.038.009a.1.1,0,0,0,.067-.035" transform="translate(-5.28 -8.583)" fill="#179ad6"/>
    </g>
  </g>
</svg>
