<svg xmlns="http://www.w3.org/2000/svg" xmlns:xlink="http://www.w3.org/1999/xlink" width="21.915" height="21.923" viewBox="0 0 21.915 21.923">
  <defs>
    <linearGradient id="linear-gradient" x1="0.5" x2="0.5" y2="1" gradientUnits="objectBoundingBox">
      <stop offset="0" stop-color="#9b5feb"/>
      <stop offset="0.324" stop-color="#6941bf"/>
      <stop offset="0.499" stop-color="#5435ad"/>
      <stop offset="0.626" stop-color="#462ca1"/>
      <stop offset="0.845" stop-color="#332191"/>
      <stop offset="1" stop-color="#2d1e8c"/>
    </linearGradient>
  </defs>
  <g id="Group_3597" data-name="Group 3597" transform="translate(0 0)">
    <path id="Path_7248" data-name="Path 7248" d="M745.638-491.01H728.245c-.148-.037-.3-.069-.446-.111a2.534,2.534,0,0,1-1.816-2.45q0-8.407,0-16.813a2.239,2.239,0,0,1,.051-.52,2.489,2.489,0,0,1,1.867-1.945c.113-.032.227-.056.34-.085h14.932l.125.042a3.33,3.33,0,0,1,.368.121,3.968,3.968,0,0,1,1.076.766c.6.567,1.2,1.138,1.776,1.737a14.851,14.851,0,0,1,1.06,1.282,1.584,1.584,0,0,1,.315.979q0,7.242,0,14.481a2.123,2.123,0,0,1-.051.483,2.489,2.489,0,0,1-1.857,1.943C745.872-491.066,745.754-491.04,745.638-491.01Zm-8.689-10.967c-2.51,0-5.018,0-7.527-.005a.9.9,0,0,0-.923.925c.009,2.757,0,5.513,0,8.27a.861.861,0,0,0,.937.941q7.5,0,15,0a1.094,1.094,0,0,0,.314-.035.839.839,0,0,0,.624-.854c0-.736,0-1.471,0-2.205q0-3.057,0-6.112a.9.9,0,0,0-.174-.583.885.885,0,0,0-.745-.34Q740.7-501.976,736.948-501.977Zm-.435-2.517q2.7,0,5.4,0a1.117,1.117,0,0,0,.277-.025.855.855,0,0,0,.667-.9c0-1.911-.005-3.824,0-5.735a.9.9,0,0,0-.942-.946q-5.388.008-10.777,0a1.1,1.1,0,0,0-.324.037.846.846,0,0,0-.625.881q0,2.88,0,5.76a1.122,1.122,0,0,0,.046.335.853.853,0,0,0,.884.59Z" transform="translate(-725.983 512.933)" fill="url(#linear-gradient)"/>
    <path id="Path_7249" data-name="Path 7249" d="M735.68-509.027c0,.934,0,1.865,0,2.8,0,.111-.03.146-.143.144q-1.12-.005-2.24,0c-.106,0-.137-.03-.137-.137q.005-2.806,0-5.61c0-.118.044-.143.15-.143.743,0,1.485.005,2.228,0,.115,0,.143.039.143.148C735.68-510.894,735.682-509.961,735.68-509.027Z" transform="translate(-720.516 513.663)" fill="url(#linear-gradient)"/>
  </g>
</svg>
