<svg xmlns="http://www.w3.org/2000/svg" width="28.363" height="28.365" viewBox="0 0 28.363 28.365">
  <g id="Group_250" data-name="Group 250" transform="translate(0)">
    <g id="Group_249" data-name="Group 249">
      <g id="Group_5954" data-name="Group 5954">
        <path id="Path_204" data-name="Path 204" d="M880.447,1102.018h-2.9c-.039-.1-.069-.2-.11-.29l2.044-2.044a2.149,2.149,0,0,0,0-3.025l-2.1-2.093a2.194,2.194,0,0,0-3.027,0l-2.042,2.044c-.1-.043-.2-.071-.292-.11v-2.9a2.142,2.142,0,0,0-2.14-2.14h-2.96a2.144,2.144,0,0,0-2.142,2.14v2.9c-.1.039-.2.067-.29.11l-2.042-2.044a2.185,2.185,0,0,0-3.029,0l-2.093,2.093a2.135,2.135,0,0,0,0,3.025l2.046,2.044c-.043.094-.074.194-.11.29h-2.9a2.144,2.144,0,0,0-2.142,2.14v2.964a2.141,2.141,0,0,0,2.142,2.138h2.9c.037.1.067.2.11.292l-2.046,2.044a2.135,2.135,0,0,0,0,3.025l2.093,2.093a2.188,2.188,0,0,0,3.029,0l2.042-2.044c.094.041.194.071.29.11v2.9a2.143,2.143,0,0,0,2.142,2.14h2.96a2.141,2.141,0,0,0,2.14-2.14v-2.9c.1-.039.2-.069.292-.11l2.042,2.044a2.2,2.2,0,0,0,3.027,0l2.1-2.093a2.141,2.141,0,0,0,0-3.025l-2.044-2.044c.041-.1.071-.194.11-.292h2.9a2.139,2.139,0,0,0,2.138-2.138v-2.964A2.142,2.142,0,0,0,880.447,1102.018Zm-8.321,11.267a9.5,9.5,0,0,1-.971.4,7.875,7.875,0,0,1-5.506,0,9.665,9.665,0,0,1-.977-.4,8.539,8.539,0,0,1-3.9-3.892v0a8.571,8.571,0,0,1-.41-.991,7.893,7.893,0,0,1,0-5.505,8.586,8.586,0,0,1,.41-.992v0a8.532,8.532,0,0,1,3.888-3.886,9.26,9.26,0,0,1,.987-.4,7.89,7.89,0,0,1,5.506,0,8.422,8.422,0,0,1,4.881,4.292v0a7.631,7.631,0,0,1,.4.992l.008.012a7.884,7.884,0,0,1,0,5.481l-.008.012a7.761,7.761,0,0,1-.4.991v0A8.563,8.563,0,0,1,872.126,1113.284Zm3.164-17.788a.842.842,0,0,1,1.165,0l2.095,2.091a.829.829,0,0,1,0,1.167l-1.769,1.769a9.864,9.864,0,0,0-3.262-3.258Zm-9.194-1.9a.826.826,0,0,1,.828-.824h2.96a.824.824,0,0,1,.824.824v2.495a8.963,8.963,0,0,0-4.612,0Zm-7.838,5.157a.822.822,0,0,1,0-1.167l2.093-2.091a.847.847,0,0,1,1.169,0l1.769,1.768a9.877,9.877,0,0,0-3.26,3.258Zm-1.9,9.192a.825.825,0,0,1-.828-.824v-2.964a.825.825,0,0,1,.828-.824h2.491a9.022,9.022,0,0,0,0,4.612Zm5.157,7.837a.846.846,0,0,1-1.169,0l-2.093-2.093a.82.82,0,0,1,0-1.165l1.771-1.769a9.867,9.867,0,0,0,3.262,3.26Zm9.188,1.9a.825.825,0,0,1-.824.824h-2.96a.827.827,0,0,1-.828-.824v-2.495a8.952,8.952,0,0,0,4.612,0Zm7.841-5.157a.818.818,0,0,1,0,1.165l-2.095,2.093a.839.839,0,0,1-1.165,0l-1.771-1.766a9.867,9.867,0,0,0,3.262-3.26Zm2.721-5.4a.826.826,0,0,1-.824.824h-2.493a8.958,8.958,0,0,0,0-4.612h2.493a.826.826,0,0,1,.824.824Zm-12.868-4.81a3.327,3.327,0,1,0,3.327,3.329A3.329,3.329,0,0,0,868.4,1102.311Zm0,5.341a2.012,2.012,0,1,1,2.011-2.011A2.015,2.015,0,0,1,868.4,1107.652Z" transform="translate(-854.222 -1091.457)"/>
      </g>
    </g>
  </g>
</svg>
