<svg xmlns="http://www.w3.org/2000/svg" width="14.048" height="23.203" viewBox="0 0 14.048 23.203">
  <g id="Group_5795" data-name="Group 5795" transform="translate(0 0)">
    <path id="Path_416" data-name="Path 416" d="M162.763,979.154a1.362,1.362,0,1,1,1.363-1.364A1.364,1.364,0,0,1,162.763,979.154Zm-2.952,18.169h5.9a3.041,3.041,0,0,1-5.9,0Zm-3.9-10.154a6.74,6.74,0,0,1,1.664-6.186,7.187,7.187,0,0,1,10.368,0,6.728,6.728,0,0,1,1.664,6.183,17.671,17.671,0,0,0,.076,8.665H155.838A17.644,17.644,0,0,0,155.914,987.169Z" transform="translate(-155.738 -976.429)" fill="#fff"/>
  </g>
</svg>
