<svg xmlns="http://www.w3.org/2000/svg" width="14.191" height="15.18" viewBox="0 0 14.191 15.18">
  <g id="Group_4685" data-name="Group 4685" transform="translate(636.873 607.122)">
    <path id="Path_782" data-name="Path 782" d="M-633.884-605.576c0-.315,0-.616,0-.916,0-.384.208-.622.539-.63s.562.236.567.632c0,.3,0,.6,0,.916h6c0-.305,0-.6,0-.9,0-.4.216-.644.554-.644s.55.244.552.644c0,.292,0,.585,0,.918h.832c.356,0,.712,0,1.068,0a1.024,1.024,0,0,1,1.086,1.089c.005.649,0,1.3,0,1.949q0,4.7,0,9.4a1.042,1.042,0,0,1-1.177,1.183h-11.826a1.045,1.045,0,0,1-1.188-1.2q0-5.606,0-11.212a1.056,1.056,0,0,1,1.21-1.207l1.655,0C-633.98-605.562-633.954-605.568-633.884-605.576Zm-2.136,4.09v.307q0,3.911,0,7.822c0,.463.1.562.561.562h11.373c.449,0,.551-.1.551-.544q0-3.924,0-7.849v-.3Zm3.243-3.172c0,.2.007.375,0,.547a.556.556,0,0,1-.574.572.555.555,0,0,1-.531-.585c0-.171,0-.342,0-.553a.831.831,0,0,0-.057,1.224.858.858,0,0,0,1.238-.022A.818.818,0,0,0-632.777-604.658Zm6,0a.8.8,0,0,0-.231.94.846.846,0,0,0,.85.519.85.85,0,0,0,.763-.641.691.691,0,0,0-.276-.793c0,.17,0,.328,0,.487a.556.556,0,0,1-.559.61.561.561,0,0,1-.546-.6C-626.781-604.3-626.777-604.466-626.777-604.66Z" fill="#21ccc8"/>
    <path id="Path_783" data-name="Path 783" d="M-542.122-481.076c-.187,0-.373,0-.56,0a.259.259,0,0,1-.283-.283c0-.355,0-.711,0-1.066a.26.26,0,0,1,.284-.284c.355-.006.711,0,1.066,0a.263.263,0,0,1,.286.283c.006.355.009.711,0,1.066a.271.271,0,0,1-.312.285C-541.8-481.078-541.962-481.076-542.122-481.076Z" transform="translate(-88.891 -117.766)" fill="#21ccc8"/>
    <path id="Path_786" data-name="Path 786" d="M-588.535-481.868c0,.857.071.8-.784.794-.186,0-.373,0-.559,0a.254.254,0,0,1-.282-.28c0-.355,0-.71,0-1.065,0-.2.113-.288.3-.289.328,0,.657,0,.985,0,.232,0,.346.1.339.338C-588.539-482.205-588.535-482.036-588.535-481.868Z" transform="translate(-44.216 -117.767)" fill="#21ccc8"/>
    <path id="Path_787" data-name="Path 787" d="M-494.969-386.581c-.16,0-.32,0-.479,0-.226.005-.323-.113-.323-.328,0-.32,0-.639,0-.959,0-.225.1-.348.337-.343.328.007.657,0,.985,0,.225,0,.322.109.32.328,0,.32-.006.639,0,.959,0,.233-.1.348-.333.343-.169,0-.337,0-.506,0Z" transform="translate(-133.566 -207.223)" fill="#21ccc8"/>
    <path id="Path_788" data-name="Path 788" d="M-542.152-433.759c-.16,0-.32,0-.479,0-.218,0-.333-.093-.332-.318,0-.337,0-.675,0-1.012a.263.263,0,0,1,.292-.3c.346,0,.692,0,1.039,0a.268.268,0,0,1,.306.29q.009.519,0,1.039a.276.276,0,0,1-.321.3C-541.814-433.762-541.983-433.759-542.152-433.759Z" transform="translate(-88.895 -162.563)" fill="#21ccc8"/>
    <path id="Path_789" data-name="Path 789" d="M-542.14-388.2c.16,0,.32,0,.479,0,.226-.007.326.108.326.324,0,.328,0,.657,0,.985a.285.285,0,0,1-.332.32c-.328-.005-.657,0-.985,0a.281.281,0,0,1-.323-.325c0-.328,0-.657,0-.985,0-.223.107-.324.328-.319C-542.477-388.192-542.309-388.2-542.14-388.2Z" transform="translate(-88.883 -207.235)" fill="#21ccc8"/>
    <path id="Path_790" data-name="Path 790" d="M-494.975-433.75c-.169,0-.337,0-.506,0a.27.27,0,0,1-.312-.284c-.008-.355-.007-.71,0-1.065a.259.259,0,0,1,.287-.28c.355,0,.71,0,1.065,0,.2,0,.285.114.285.306q0,.506,0,1.012a.274.274,0,0,1-.312.31Z" transform="translate(-133.54 -162.572)" fill="#21ccc8"/>
    <path id="Path_791" data-name="Path 791" d="M-590.2-434.6c0-.895-.085-.817.811-.817s.816-.081.816.813.079.816-.812.817c-.169,0-.337,0-.505,0a.267.267,0,0,1-.31-.307C-590.2-434.266-590.2-434.435-590.2-434.6Z" transform="translate(-44.178 -162.531)" fill="#21ccc8"/>
    <path id="Path_793" data-name="Path 793" d="M-588.547-387.333c0,.168,0,.337,0,.505a.261.261,0,0,1-.3.291h-1.037a.26.26,0,0,1-.291-.3c0-.346,0-.692,0-1.037a.259.259,0,0,1,.3-.291q.519,0,1.037,0a.26.26,0,0,1,.291.3C-588.546-387.688-588.547-387.511-588.547-387.333Z" transform="translate(-44.206 -207.267)" fill="#21ccc8"/>
  </g>
</svg>
