<svg id="Group_2254" data-name="Group 2254" xmlns="http://www.w3.org/2000/svg" width="21.844" height="21.783" viewBox="0 0 21.844 21.783">
  <g id="Group_2250" data-name="Group 2250" transform="translate(0)">
    <path id="Path_3071" data-name="Path 3071" d="M392.674-1410.875H380.852a.849.849,0,0,1-.849-.847v-9.688h16.139a.631.631,0,0,0,.632-.632.633.633,0,0,0-.632-.634H380v-3.007a.851.851,0,0,1,.849-.853h1.9v.323a2.022,2.022,0,0,0,2.019,2.023,2.024,2.024,0,0,0,2.021-2.023v-.323h4.774v.323a2.024,2.024,0,0,0,2.021,2.023,2.023,2.023,0,0,0,2.019-2.023v-.323h1.9a.851.851,0,0,1,.847.853v9.392a3.59,3.59,0,0,1,.889.644,4.031,4.031,0,0,1,.377.173v-10.208a2.118,2.118,0,0,0-2.113-2.119h-1.9v-.323a2.023,2.023,0,0,0-2.019-2.021,2.023,2.023,0,0,0-2.021,2.021v.323h-4.774v-.323a2.023,2.023,0,0,0-2.021-2.021,2.022,2.022,0,0,0-2.019,2.021v.323h-1.9a2.117,2.117,0,0,0-2.115,2.119v13.96a2.116,2.116,0,0,0,2.115,2.114h12.571A4.062,4.062,0,0,1,392.674-1410.875Zm.156-17.249a.755.755,0,0,1,.753-.755.755.755,0,0,1,.753.755v1.911a.755.755,0,0,1-.753.755.755.755,0,0,1-.753-.755Zm-8.816,0a.755.755,0,0,1,.753-.755.753.753,0,0,1,.753.755v1.911a.754.754,0,0,1-.753.755.755.755,0,0,1-.753-.755Z" transform="translate(-378.737 1430.145)" fill="#235697"/>
    <path id="Path_3072" data-name="Path 3072" d="M381.553-1424.644a1.156,1.156,0,0,0-1.153,1.157v1.7a1.154,1.154,0,0,0,1.153,1.155h1.7a1.154,1.154,0,0,0,1.153-1.155v-1.7a1.156,1.156,0,0,0-1.153-1.157Zm1.591,2.747h-1.477v-1.477h1.477Z" transform="translate(-377.205 1435.212)" fill="#235697"/>
  </g>
  <g id="Group_2253" data-name="Group 2253" transform="translate(12.789 12.731)">
    <g id="Group_2251" data-name="Group 2251">
      <path id="Path_3073" data-name="Path 3073" d="M389.922-1414.466a4.534,4.534,0,0,1-4.528-4.526,4.533,4.533,0,0,1,4.528-4.526,4.532,4.532,0,0,1,4.528,4.526A4.533,4.533,0,0,1,389.922-1414.466Zm0-7.717a3.2,3.2,0,0,0-3.193,3.191,3.2,3.2,0,0,0,3.193,3.191,3.2,3.2,0,0,0,3.195-3.191A3.2,3.2,0,0,0,389.922-1422.183Z" transform="translate(-385.394 1423.518)" fill="#235697"/>
    </g>
    <g id="Group_2252" data-name="Group 2252" transform="translate(4.094 2.782)">
      <path id="Path_3074" data-name="Path 3074" d="M387.658-1419.823a.453.453,0,0,1-.133-.317v-1.481a.453.453,0,0,1,.45-.449.457.457,0,0,1,.45.449v1.032l1,0a.448.448,0,0,1,.448.448.449.449,0,0,1-.448.451l-1.447,0A.452.452,0,0,1,387.658-1419.823Z" transform="translate(-387.525 1422.07)" fill="#235697"/>
    </g>
  </g>
</svg>
