<svg xmlns="http://www.w3.org/2000/svg" width="23.362" height="18.213" viewBox="0 0 23.362 18.213">
  <g id="Group_5796" data-name="Group 5796" transform="translate(0)">
    <path id="Path_472" data-name="Path 472" d="M152.076,1317.862a2.034,2.034,0,0,1-1.493,1.474l.006.035c.2-.022.4-.045.6-.063a.144.144,0,0,1,.08.028.068.068,0,0,1-.007.059.126.126,0,0,1-.081.017,1.329,1.329,0,0,0-.219-.046c-.2,0-.407,0-.611.009a.183.183,0,0,0-.1.054c-.05.046-.168.059-.2,0-.035-.076-.093-.059-.148-.059H131.127c-.07,0-.144-.024-.193.069-.013.024-.15.026-.165,0-.05-.094-.133-.072-.2-.074-.2-.007-.407-.005-.611,0a.689.689,0,0,0-.137.05.085.085,0,0,1-.07-.015.066.066,0,0,1-.009-.069.086.086,0,0,1,.069-.026c.2.02.394.045.6.046a2.038,2.038,0,0,1-1.455-1.482,1.408,1.408,0,0,0,.02.589.123.123,0,0,1-.015.083c0,.009-.05.013-.059,0a.109.109,0,0,1-.022-.072c.013-.113.039-.226.044-.339.007-.152,0-.306,0-.459,0-.061.007-.115-.067-.157-.028-.017-.011-.122,0-.185.007-.046.057-.089.057-.135q0-3.308,0-6.616c0-.042-.043-.081-.052-.124a1.571,1.571,0,0,1-.022-.185,1.237,1.237,0,0,1,.185.007c.046.007.089.056.131.056q2.458.005,4.915,0H151.85c.056,0,.107.006.146-.063.015-.028.111-.007.172-.007a1.566,1.566,0,0,1-.017.185c-.009.046-.056.089-.056.133q-.006,3.3,0,6.605a.249.249,0,0,0,.057.137.178.178,0,0,1-.009.205.188.188,0,0,0-.056.113c-.006.228,0,.453,0,.681,0,.041.026.08.031.12a.2.2,0,0,1-.006.094c0,.006-.065.007-.067,0a.174.174,0,0,1-.006-.093.783.783,0,0,0,.033-.13C152.08,1318.168,152.076,1318.016,152.076,1317.862Zm-15.407-3.3c.117.085.117.17.019.25a.107.107,0,0,0-.031.08q0,.611,0,1.222a.117.117,0,0,0,.028.083c.1.083.1.172-.009.257a.581.581,0,0,0,.307.311c.08-.081.207-.111.233-.052.037.085.1.067.156.067h3.079c.639,0,1.276,0,1.915,0a.168.168,0,0,0,.115-.032.15.15,0,0,1,.254.017.577.577,0,0,0,.313-.307.192.192,0,0,1-.046-.248.208.208,0,0,0,.059-.117c0-.391,0-.783,0-1.176,0-.03,0-.078-.013-.089-.144-.089-.076-.182,0-.28a.531.531,0,0,0-.318-.3c-.048.083-.211.117-.23.052-.028-.094-.091-.072-.146-.072h-3.209c-.6,0-1.191,0-1.787,0a.164.164,0,0,0-.115.03c-.087.1-.161.1-.257-.013A.583.583,0,0,0,136.67,1314.559Zm-1.342,0a.552.552,0,0,0-.313-.311c-.089.113-.156.111-.256.007a.126.126,0,0,0-.085-.024q-1.244,0-2.491,0a.158.158,0,0,0-.1.054c-.037.043-.169.072-.193.026-.054-.1-.113-.043-.159-.01a.858.858,0,0,0-.161.165c-.03.037-.072.085.006.135.059.041.037.159-.02.205a.132.132,0,0,0-.046.091q0,.606,0,1.209a.126.126,0,0,0,.022.085c.1.094.106.176,0,.261a.533.533,0,0,0,.315.311c.089-.105.152-.1.248-.011a.14.14,0,0,0,.083.026q1.253,0,2.5,0a.129.129,0,0,0,.087-.037.148.148,0,0,1,.209-.02.108.108,0,0,0,.093.016.491.491,0,0,0,.252-.289c-.107-.078-.1-.161,0-.255a.125.125,0,0,0,.024-.083q0-.606,0-1.211a.125.125,0,0,0-.026-.083C135.216,1314.718,135.214,1314.646,135.327,1314.557Z" transform="translate(-128.819 -1301.256)" fill="#a1a1a1"/>
    <path id="Path_473" data-name="Path 473" d="M150.6,1305.494a2.093,2.093,0,0,1,1.478,1.489c-.02-.2.065-.4-.039-.6-.009-.018.007-.059.022-.079s.048-.011.059,0,.033.057.026.069c-.1.148-.035.313-.05.468a2.578,2.578,0,0,0,0,.317c0,.065-.028.141.072.176.017.008-.006.128-.019.193-.007.037-.044.07-.044.1q-.006.752,0,1.505c0,.035.033.07.044.107a.919.919,0,0,1,.037.169c0,.015-.041.048-.063.048-.052,0-.115.028-.146-.056-.009-.026-.078-.039-.12-.039q-1.1,0-2.209,0-10.208,0-20.417,0c-.076,0-.172-.041-.219.079-.006.019-.111,0-.17,0,.009-.065.013-.132.026-.194.009-.041.052-.076.052-.115,0-.5,0-1,0-1.505a.137.137,0,0,0-.032-.089c-.083-.081-.08-.146.009-.231a.138.138,0,0,0,.03-.094c0-.231,0-.461,0-.693a.923.923,0,0,0-.043-.128.132.132,0,0,1,.015-.083.061.061,0,0,1,.059-.006c.017.02.039.065.03.076-.089.107-.039.233-.048.35a1.357,1.357,0,0,0,.007.259,2.066,2.066,0,0,1,1.481-1.491c-.17,0-.341,0-.509,0-.031,0-.059.037-.091.045a.114.114,0,0,1-.08-.018.061.061,0,0,1-.006-.059c.017-.017.054-.033.069-.026.191.094.393.024.587.042a1.007,1.007,0,0,0,.246,0c.043,0,.078-.048.118-.057.063-.013.165-.037.185-.009a.146.146,0,0,0,.148.061h9.438q4.666,0,9.333,0c.076,0,.161.034.215-.07.011-.018.117,0,.176.019.043.011.08.057.119.059.228.006.454,0,.681,0a1.326,1.326,0,0,0,.141-.041.126.126,0,0,1,.08.024c.009.007.006.048-.006.059s-.057.033-.067.024c-.111-.094-.241-.042-.361-.054C150.763,1305.489,150.682,1305.494,150.6,1305.494Z" transform="translate(-128.826 -1305.398)" fill="#a1a1a1"/>
  </g>
</svg>
