<svg xmlns="http://www.w3.org/2000/svg" xmlns:xlink="http://www.w3.org/1999/xlink" width="18.553" height="20.523" viewBox="0 0 18.553 20.523">
  <defs>
    <clipPath id="clip-path">
      <path id="Path_7312" data-name="Path 7312" d="M696-456.535l-7.784,4.493a2.912,2.912,0,0,1-2.985,0l-6.293-3.632a2.916,2.916,0,0,1-1.492-2.585v-7.266a2.918,2.918,0,0,1,1.492-2.586l6.293-3.632a2.912,2.912,0,0,1,2.985,0L696-467.249l-3.878,2.239a2.921,2.921,0,0,1-2.986,0l-5.414-3.127a.591.591,0,0,0-.6,0,.592.592,0,0,0-.3.522v11.445a.591.591,0,0,0,.3.522.591.591,0,0,0,.6,0l5.414-3.127a2.915,2.915,0,0,1,2.986,0Z" transform="translate(-677.449 472.154)" fill="#21ccc8" clip-rule="evenodd"/>
    </clipPath>
  </defs>
  <g id="Group_3642" data-name="Group 3642" transform="translate(-677.449 472.154)">
    <g id="Group_3639" data-name="Group 3639" transform="translate(677.449 -472.154)">
      <path id="Path_7311" data-name="Path 7311" d="M696-456.535l-7.784,4.493a2.912,2.912,0,0,1-2.985,0l-6.293-3.632a2.916,2.916,0,0,1-1.492-2.585v-7.266a2.918,2.918,0,0,1,1.492-2.586l6.293-3.632a2.912,2.912,0,0,1,2.985,0L696-467.249l-3.878,2.239a2.921,2.921,0,0,1-2.986,0l-5.414-3.127a.591.591,0,0,0-.6,0,.592.592,0,0,0-.3.522v11.445a.591.591,0,0,0,.3.522.591.591,0,0,0,.6,0l5.414-3.127a2.915,2.915,0,0,1,2.986,0Z" transform="translate(-677.449 472.154)" fill="#21ccc8" fill-rule="evenodd"/>
      <g id="Group_3638" data-name="Group 3638" clip-path="url(#clip-path)">
        <rect id="Rectangle_826" data-name="Rectangle 826" width="18.553" height="20.797" transform="translate(0 -0.137)" fill="#21ccc8"/>
      </g>
    </g>
    <g id="Group_3640" data-name="Group 3640" transform="translate(682.818 -472.154)" style="isolation: isolate">
      <path id="Path_7313" data-name="Path 7313" d="M683.946-471.742a4.85,4.85,0,0,0-2.415,4.128.591.591,0,0,1,.3-.522.587.587,0,0,1,.6,0l5.415,3.127a2.915,2.915,0,0,0,2.986,0l3.878-2.24-7.783-4.492a2.912,2.912,0,0,0-2.985,0" transform="translate(-681.531 472.154)" fill="#7ceae7" fill-rule="evenodd"/>
    </g>
    <g id="Group_3641" data-name="Group 3641" transform="translate(682.819 -459.185)" style="isolation: isolate">
      <path id="Path_7314" data-name="Path 7314" d="M683.947-455.151a4.852,4.852,0,0,1-2.415-4.128.59.59,0,0,0,.3.522.6.6,0,0,0,.6,0l5.415-3.127a2.912,2.912,0,0,1,2.985,0l3.879,2.239-7.783,4.493a2.912,2.912,0,0,1-2.985,0" transform="translate(-681.532 462.295)" fill="#7ceae7" fill-rule="evenodd"/>
    </g>
  </g>
</svg>
