<svg xmlns="http://www.w3.org/2000/svg" width="19.686" height="14.764" viewBox="0 0 19.686 14.764">
  <path id="Icon_material-contact-phone" data-name="Icon material-contact-phone" d="M18.045,4.5H1.64A1.645,1.645,0,0,0,0,6.14V17.624a1.645,1.645,0,0,0,1.64,1.64h16.4a1.638,1.638,0,0,0,1.632-1.64L19.686,6.14A1.645,1.645,0,0,0,18.045,4.5ZM6.562,6.961A2.461,2.461,0,1,1,4.1,9.421,2.457,2.457,0,0,1,6.562,6.961ZM11.483,16.8H1.64v-.82c0-1.64,3.281-2.543,4.921-2.543s4.921.9,4.921,2.543Zm3.158-3.281h1.345l1.239,1.64L15.593,16.8a6.161,6.161,0,0,1-2.239-3.273,5.974,5.974,0,0,1,0-3.281,6.13,6.13,0,0,1,2.239-3.273L17.225,8.6l-1.239,1.64H14.641a4.831,4.831,0,0,0,0,3.281Z" transform="translate(0 -4.5)" fill="#4d31a7"/>
</svg>
