<svg xmlns="http://www.w3.org/2000/svg" xmlns:xlink="http://www.w3.org/1999/xlink" width="24.846" height="27.483" viewBox="0 0 24.846 27.483">
  <defs>
    <linearGradient id="linear-gradient" x1="0.5" x2="0.5" y2="1" gradientUnits="objectBoundingBox">
      <stop offset="0" stop-color="#9b5feb"/>
      <stop offset="0.324" stop-color="#6941bf"/>
      <stop offset="0.499" stop-color="#5435ad"/>
      <stop offset="0.626" stop-color="#462ca1"/>
      <stop offset="0.845" stop-color="#332191"/>
      <stop offset="1" stop-color="#2d1e8c"/>
    </linearGradient>
    <clipPath id="clip-path">
      <path id="Path_7312" data-name="Path 7312" d="M702.295-451.238l-10.425,6.017a3.9,3.9,0,0,1-4,0l-8.427-4.863a3.905,3.905,0,0,1-2-3.461v-9.73a3.908,3.908,0,0,1,2-3.463l8.427-4.863a3.9,3.9,0,0,1,4,0l10.423,6.017-5.193,3a3.911,3.911,0,0,1-4,0l-7.25-4.187a.792.792,0,0,0-.808,0,.793.793,0,0,0-.4.7v15.327a.791.791,0,0,0,.4.7.792.792,0,0,0,.808,0l7.25-4.187a3.9,3.9,0,0,1,4,0Z" transform="translate(-677.449 472.154)" fill="url(#linear-gradient)" clip-rule="evenodd"/>
    </clipPath>
  </defs>
  <g id="Group_3642" data-name="Group 3642" transform="translate(0)">
    <g id="Group_3639" data-name="Group 3639" transform="translate(0)">
      <path id="Path_7311" data-name="Path 7311" d="M702.295-451.238l-10.425,6.017a3.9,3.9,0,0,1-4,0l-8.427-4.863a3.905,3.905,0,0,1-2-3.461v-9.73a3.908,3.908,0,0,1,2-3.463l8.427-4.863a3.9,3.9,0,0,1,4,0l10.423,6.017-5.193,3a3.911,3.911,0,0,1-4,0l-7.25-4.187a.792.792,0,0,0-.808,0,.793.793,0,0,0-.4.7v15.327a.791.791,0,0,0,.4.7.792.792,0,0,0,.808,0l7.25-4.187a3.9,3.9,0,0,1,4,0Z" transform="translate(-677.449 472.154)" fill-rule="evenodd" fill="url(#linear-gradient)"/>
      <g id="Group_3638" data-name="Group 3638" clip-path="url(#clip-path)">
        <rect id="Rectangle_826" data-name="Rectangle 826" width="24.846" height="27.85" transform="translate(-0.001 -0.183)" fill="url(#linear-gradient)"/>
      </g>
    </g>
    <g id="Group_3640" data-name="Group 3640" transform="translate(7.19)">
      <path id="Path_7313" data-name="Path 7313" d="M684.765-471.6a6.5,6.5,0,0,0-3.234,5.528.791.791,0,0,1,.405-.7.785.785,0,0,1,.8,0l7.252,4.187a3.9,3.9,0,0,0,4,0l5.193-3L688.762-471.6a3.9,3.9,0,0,0-4,0" transform="translate(-681.531 472.154)" fill-rule="evenodd" fill="url(#linear-gradient)"/>
    </g>
    <g id="Group_3641" data-name="Group 3641" transform="translate(7.191 17.366)">
      <path id="Path_7314" data-name="Path 7314" d="M684.766-452.729a6.5,6.5,0,0,1-3.234-5.527.79.79,0,0,0,.4.7.8.8,0,0,0,.807,0l7.252-4.187a3.9,3.9,0,0,1,4,0l5.195,3-10.423,6.017a3.9,3.9,0,0,1-4,0" transform="translate(-681.532 462.295)" fill-rule="evenodd" fill="url(#linear-gradient)"/>
    </g>
  </g>
</svg>
