<svg xmlns="http://www.w3.org/2000/svg" width="22.999" height="16.519" viewBox="0 0 22.999 16.519">
  <g id="Group_5796" data-name="Group 5796" transform="translate(0.51 0.5)">
    <path id="Path_7263" data-name="Path 7263" d="M590.769-498.689c-.22-2.726.5-4.991,2.905-6.409a5.287,5.287,0,0,1,6,.21c2.169,1.474,2.79,3.65,2.542,6.2Z" transform="translate(-585.527 514.201)" fill="#fff" stroke="#707070" stroke-width="1"/>
    <path id="Path_7264" data-name="Path 7264" d="M596.328-513.289a3.64,3.64,0,0,1,3.612,3.683,3.649,3.649,0,0,1-3.721,3.639,3.661,3.661,0,0,1-3.617-3.748A3.661,3.661,0,0,1,596.328-513.289Z" transform="translate(-585.295 513.289)" fill="#fff" stroke="#707070" stroke-width="1"/>
    <path id="Path_7265" data-name="Path 7265" d="M589.89-503.926a2.453,2.453,0,0,1-2.481-2.449,2.459,2.459,0,0,1,2.493-2.5,2.492,2.492,0,0,1,2.466,2.484A2.481,2.481,0,0,1,589.89-503.926Z" transform="translate(-585.938 513.836)" fill="#fff" stroke="#707070" stroke-width="1"/>
    <path id="Path_7266" data-name="Path 7266" d="M602.412-503.928a2.449,2.449,0,0,1-2.476-2.454,2.457,2.457,0,0,1,2.5-2.5,2.5,2.5,0,0,1,2.462,2.489A2.486,2.486,0,0,1,602.412-503.928Z" transform="translate(-584.387 513.836)" fill="#fff" stroke="#707070" stroke-width="1"/>
    <path id="Path_7267" data-name="Path 7267" d="M590.463-498.974h-4.312a3.92,3.92,0,0,1,4.9-4.442,17.7,17.7,0,0,0-.571,2.19A17.188,17.188,0,0,0,590.463-498.974Z" transform="translate(-586.101 514.488)" fill="#fff" stroke="#707070" stroke-width="1"/>
    <path id="Path_7268" data-name="Path 7268" d="M602.046-498.967l-.71-4.511a3.571,3.571,0,0,1,3.4.809,4.156,4.156,0,0,1,1.449,3.7Z" transform="translate(-584.214 514.486)" fill="#fff" stroke="#707070" stroke-width="1"/>
  </g>
</svg>
