<svg xmlns="http://www.w3.org/2000/svg" width="18.315" height="18.327" viewBox="0 0 18.315 18.327">
  <g id="Group_1675" data-name="Group 1675" transform="translate(0 0)">
    <path id="Path_2096" data-name="Path 2096" d="M2208.7-2126.607l3.527,3.524-8.5,8.466-3.486-3.559Z" transform="translate(-2197.022 2129.717)" fill="#a1a1a1"/>
    <path id="Path_2097" data-name="Path 2097" d="M2208.267-2122.633l-3.694-3.706c.41-.4.82-.828,1.267-1.219a1.683,1.683,0,0,1,2.284.016c.486.438.952.907,1.393,1.39a1.678,1.678,0,0,1-.007,2.284C2209.129-2123.437,2208.7-2123.057,2208.267-2122.633Z" transform="translate(-2191.647 2127.996)" fill="#a1a1a1"/>
    <path id="Path_2098" data-name="Path 2098" d="M2200.45-2122.249l3.811,3.791-5.461,1.668Z" transform="translate(-2198.8 2135.117)" fill="#a1a1a1"/>
  </g>
</svg>
