<svg xmlns="http://www.w3.org/2000/svg" width="18.527" height="18.612" viewBox="0 0 18.527 18.612">
  <g id="Group_5951" data-name="Group 5951" transform="translate(-161.945 1374.412)">
    <path id="Path_2959" data-name="Path 2959" d="M172.513-1373.022l2.686,2.682-6.474,6.443-2.653-2.708Z" transform="translate(2.906 0.978)" fill="#fff"/>
    <path id="Path_2960" data-name="Path 2960" d="M173.221-1370.329l-2.81-2.82c.31-.3.622-.632.963-.927a1.283,1.283,0,0,1,1.74.01c.37.336.723.692,1.06,1.06a1.275,1.275,0,0,1-.007,1.736C173.879-1370.943,173.548-1370.652,173.221-1370.329Z" transform="translate(5.961)" fill="#fff"/>
    <path id="Path_2961" data-name="Path 2961" d="M165.894-1368.664l2.9,2.885-4.154,1.268Z" transform="translate(1.896 4.047)" fill="#fff"/>
    <path id="Path_2962" data-name="Path 2962" d="M179.187-1367.021a.661.661,0,0,0-.659-.659.661.661,0,0,0-.659.659v1.949h0v7.36H163.242v-14.645h7.442v0h1.888a.638.638,0,0,0,.637-.637.64.64,0,0,0-.637-.639h-1.888v0q-3.6,0-7.2,0a1.338,1.338,0,0,0-1.54,1.52v14.21c0,1.052.472,1.537,1.52,1.539q7.1,0,14.21,0a1.339,1.339,0,0,0,1.512-1.512q0-3.6,0-7.2h0Z" transform="translate(0 0.552)" fill="#fff"/>
  </g>
</svg>
