<svg id="Group_5357" data-name="Group 5357" xmlns="http://www.w3.org/2000/svg" xmlns:xlink="http://www.w3.org/1999/xlink" width="33.597" height="37.458" viewBox="0 0 33.597 37.458">
  <defs>
    <clipPath id="clip-path">
      <rect id="Rectangle_1358" data-name="Rectangle 1358" width="33.597" height="37.458" fill="#e0e0e0"/>
    </clipPath>
  </defs>
  <g id="Group_5356" data-name="Group 5356" clip-path="url(#clip-path)">
    <path id="Path_10245" data-name="Path 10245" d="M16.009,18.58V37.34c5.234-.016,23.429-.031,26.234-.046V18.575H39.887ZM37.12,24.767c-.549.522-1.107,1.035-1.661,1.552q-1.219,1.137-2.438,2.273a.625.625,0,0,1-1.013-.045q-.819-.906-1.636-1.814a1.012,1.012,0,0,1-.075-.114c-.555.663-1.078,1.287-1.6,1.912a.622.622,0,0,1-1.075-.02q-1.172-1.523-2.348-3.043c-.038-.049-.08-.094-.132-.156-.339.442-.668.872-1,1.3q-1.08,1.4-2.16,2.8-.85,1.108-1.69,2.224a.61.61,0,1,1-.97-.733l5.284-6.9a.614.614,0,0,1,1.07,0l2.359,3.058c.042.055.087.107.147.18.143-.169.28-.329.416-.491.386-.46.768-.921,1.156-1.379a.613.613,0,0,1,1.018-.009q.866.965,1.736,1.927c.016.018.036.033.062.057l1.622-1.513q1.053-.981,2.107-1.962a.576.576,0,0,1,.593-.148.6.6,0,0,1,.225,1.041" transform="translate(-12.173 -14.124)" fill="#e0e0e0"/>
    <path id="Path_10246" data-name="Path 10246" d="M10.884,18.774v14.8q0,2.14,0,4.281a.619.619,0,0,0,.693.687c1.421,0,6.545-.008,11.965-.012-.027.055-.047.1-.069.138q-.743,1.34-1.487,2.68l-4.052,7.294q-.542.976-1.086,1.951a.64.64,0,0,0-.056.6.572.572,0,0,0,.51.366.582.582,0,0,0,.579-.319q.683-1.222,1.363-2.446l4.491-8.09c.067-.12.137-.237.205-.356l.028.013v.093q0,3.762,0,7.523a1.345,1.345,0,0,0,.019.244.6.6,0,0,0,1.155.092,1.1,1.1,0,0,0,.041-.335q0-3.714,0-7.428v-.242c.039.053.054.069.065.087l3.814,6.863c.729,1.312,1.454,2.627,2.191,3.935a.854.854,0,0,0,.349.323.556.556,0,0,0,.665-.169.616.616,0,0,0,.035-.755l-3.263-5.871q-1.64-2.952-3.279-5.905c-.05-.089-.095-.183-.147-.285L32,38.523l6.568.018a.619.619,0,0,0,.693-.687q0-2.141,0-4.281V18.552H10.884Zm1.228-.212,23.878,0h2.357V37.276c-2.805.016-21,.031-26.234.047Z" transform="translate(-8.276 -14.107)" fill="#e0e0e0"/>
    <path id="Path_10247" data-name="Path 10247" d="M33.581.568a.788.788,0,0,0-.184-.4C33.257-.02,33.034,0,32.825,0L21.55,0h-9.5L.772,0C.563,0,.34-.02.2.173a.788.788,0,0,0-.184.4C0,1.427,0,2.286.006,3.145a.582.582,0,0,0,.619.581c.65,0,1.3,0,1.983,0H30.989c.682,0,1.332,0,1.982,0a.582.582,0,0,0,.619-.581c.01-.859.009-1.718-.01-2.577" transform="translate(0 0)" fill="#e0e0e0"/>
  </g>
</svg>
