<svg id="Group_4652" data-name="Group 4652" xmlns="http://www.w3.org/2000/svg" xmlns:xlink="http://www.w3.org/1999/xlink" width="22.898" height="25.529" viewBox="0 0 22.898 25.529">
  <defs>
    <clipPath id="clip-path">
      <rect id="Rectangle_1055" data-name="Rectangle 1055" width="22.898" height="25.529" fill="#a1a1a1"/>
    </clipPath>
  </defs>
  <g id="Group_4651" data-name="Group 4651" clip-path="url(#clip-path)">
    <path id="Path_9074" data-name="Path 9074" d="M16.009,18.578V31.364c3.567-.011,15.968-.021,17.88-.032V18.575H32.283ZM30.4,22.8c-.374.356-.754.706-1.132,1.058q-.831.775-1.662,1.549a.426.426,0,0,1-.69-.031L25.8,24.135a.69.69,0,0,1-.051-.078c-.378.452-.735.877-1.09,1.3a.424.424,0,0,1-.732-.014q-.8-1.038-1.6-2.074c-.026-.033-.054-.064-.09-.106-.231.3-.455.594-.68.887q-.736.956-1.472,1.911-.579.755-1.152,1.516a.416.416,0,1,1-.661-.5l3.6-4.7a.419.419,0,0,1,.729,0l1.608,2.084c.029.037.059.073.1.123.1-.115.191-.224.283-.334.263-.313.523-.628.788-.94a.418.418,0,0,1,.694-.006q.59.658,1.183,1.314c.011.012.024.022.042.039L28.4,23.523l1.436-1.337a.392.392,0,0,1,.4-.1.409.409,0,0,1,.153.71" transform="translate(-13.395 -15.541)" fill="#a1a1a1"/>
    <path id="Path_9075" data-name="Path 9075" d="M10.884,18.7V28.79q0,1.459,0,2.918a.422.422,0,0,0,.472.468c.968,0,4.461-.005,8.155-.008-.018.037-.032.067-.047.094L18.45,34.088l-2.762,4.971q-.37.665-.74,1.33a.436.436,0,0,0-.038.407.39.39,0,0,0,.348.25.4.4,0,0,0,.394-.218q.465-.833.929-1.667l3.061-5.514c.045-.081.093-.162.14-.242l.019.009v.064q0,2.564,0,5.127a.917.917,0,0,0,.013.167.408.408,0,0,0,.787.062.747.747,0,0,0,.028-.228q0-2.531,0-5.063v-.165c.027.036.037.047.044.059l2.6,4.678c.5.894.991,1.791,1.493,2.682a.582.582,0,0,0,.238.22.379.379,0,0,0,.454-.115.42.42,0,0,0,.024-.515l-2.224-4-2.235-4.025c-.034-.061-.065-.124-.1-.194l4.356,0,4.477.013a.422.422,0,0,0,.472-.468q0-1.459,0-2.918V18.552H10.884Zm.837-.145,16.274,0H29.6V31.313c-1.912.011-14.313.021-17.88.032Z" transform="translate(-9.106 -15.522)" fill="#a1a1a1"/>
    <path id="Path_9076" data-name="Path 9076" d="M22.887.387a.537.537,0,0,0-.125-.27c-.1-.131-.248-.117-.39-.117H.527C.384,0,.232-.013.136.118a.537.537,0,0,0-.125.27C0,.973,0,1.558,0,2.144a.4.4,0,0,0,.422.4c.443,0,.887,0,1.351,0H21.121c.465,0,.908,0,1.351,0a.4.4,0,0,0,.422-.4C22.9,1.558,22.9.973,22.887.387" transform="translate(0 0)" fill="#a1a1a1"/>
  </g>
</svg>
