<svg xmlns="http://www.w3.org/2000/svg" width="19.432" height="22.768" viewBox="0 0 19.432 22.768">
  <path id="Icon_awesome-file-excel" data-name="Icon awesome-file-excel" d="M11.335,6.048V0H1.214A1.145,1.145,0,0,0,0,1.067V21.7a1.145,1.145,0,0,0,1.214,1.067h17A1.145,1.145,0,0,0,19.432,21.7V7.115H12.55A1.151,1.151,0,0,1,11.335,6.048Zm3.041,4.736-3.041,4.158L14.376,19.1a.536.536,0,0,1-.511.823H12.1a.626.626,0,0,1-.536-.28c-.992-1.61-1.847-3.055-1.847-3.055-.324.658-.506.889-1.852,3.059a.618.618,0,0,1-.531.28H5.566a.536.536,0,0,1-.511-.823l3.051-4.158L5.055,10.788a.534.534,0,0,1,.511-.823H7.327a.627.627,0,0,1,.536.28c1.321,2.17,1.012,1.494,1.852,3.046,0,0,.309-.52,1.852-3.046a.626.626,0,0,1,.536-.28h1.761A.532.532,0,0,1,14.376,10.783Zm5.055-5.363v.271H12.954V0h.309a1.3,1.3,0,0,1,.86.311l4.954,4.358A1,1,0,0,1,19.432,5.421Z" fill="#21ccc8"/>
</svg>
