<svg xmlns="http://www.w3.org/2000/svg" width="17.353" height="12.95" viewBox="0 0 17.353 12.95">
  <g id="Group_1462" data-name="Group 1462" transform="translate(-2868 94)">
    <g id="Group_304" data-name="Group 304" transform="translate(2881.727 -92.187)">
      <rect id="Rectangle_196" data-name="Rectangle 196" width="3.626" height="1.554" transform="translate(0)" fill="#1a98e5"/>
    </g>
    <g id="Group_305" data-name="Group 305" transform="translate(2868 -92.187)">
      <rect id="Rectangle_197" data-name="Rectangle 197" width="6.734" height="1.554" fill="#1a98e5"/>
    </g>
    <g id="Group_306" data-name="Group 306" transform="translate(2875.77 -94)">
      <path id="Path_275" data-name="Path 275" d="M2885.59-88.82a2.593,2.593,0,0,1-2.59-2.59,2.593,2.593,0,0,1,2.59-2.59,2.593,2.593,0,0,1,2.59,2.59A2.593,2.593,0,0,1,2885.59-88.82Zm0-3.626a1.037,1.037,0,0,0-1.036,1.036,1.037,1.037,0,0,0,1.036,1.036,1.037,1.037,0,0,0,1.036-1.036A1.037,1.037,0,0,0,2885.59-92.446Z" transform="translate(-2883 94)" fill="#1a98e5"/>
    </g>
    <g id="Group_307" data-name="Group 307" transform="translate(2868 -84.417)">
      <rect id="Rectangle_198" data-name="Rectangle 198" width="3.626" height="1.554" transform="translate(0 0)" fill="#1a98e5"/>
    </g>
    <g id="Group_308" data-name="Group 308" transform="translate(2878.619 -84.417)">
      <rect id="Rectangle_199" data-name="Rectangle 199" width="6.734" height="1.554" transform="translate(0 0)" fill="#1a98e5"/>
    </g>
    <g id="Group_309" data-name="Group 309" transform="translate(2872.403 -86.23)">
      <path id="Path_276" data-name="Path 276" d="M2879.09-73.82a2.593,2.593,0,0,1-2.59-2.59,2.593,2.593,0,0,1,2.59-2.59,2.593,2.593,0,0,1,2.59,2.59A2.593,2.593,0,0,1,2879.09-73.82Zm0-3.626a1.037,1.037,0,0,0-1.036,1.036,1.037,1.037,0,0,0,1.036,1.036,1.037,1.037,0,0,0,1.036-1.036A1.037,1.037,0,0,0,2879.09-77.446Z" transform="translate(-2876.5 79)" fill="#1a98e5"/>
    </g>
  </g>
</svg>
