<svg xmlns="http://www.w3.org/2000/svg" xmlns:xlink="http://www.w3.org/1999/xlink" width="34.465" height="24.325" viewBox="0 0 34.465 24.325">
  <defs>
    <linearGradient id="linear-gradient" x1="0.5" x2="0.5" y2="1" gradientUnits="objectBoundingBox">
      <stop offset="0" stop-color="#9b5feb"/>
      <stop offset="0.324" stop-color="#6941bf"/>
      <stop offset="0.499" stop-color="#5435ad"/>
      <stop offset="0.626" stop-color="#462ca1"/>
      <stop offset="0.845" stop-color="#332191"/>
      <stop offset="1" stop-color="#2d1e8c"/>
    </linearGradient>
  </defs>
  <g id="Group_3607" data-name="Group 3607" transform="translate(0 0)">
    <g id="Group_3606" data-name="Group 3606">
      <path id="Path_7263" data-name="Path 7263" d="M590.79-494.58c-.345-4.273.786-7.823,4.553-10.046a8.287,8.287,0,0,1,9.4.329c3.4,2.311,4.374,5.721,3.984,9.716Z" transform="translate(-582.574 518.893)" fill="url(#linear-gradient)"/>
      <path id="Path_7264" data-name="Path 7264" d="M598.442-513.289a5.706,5.706,0,0,1,5.661,5.772,5.72,5.72,0,0,1-5.832,5.7,5.739,5.739,0,0,1-5.669-5.875A5.738,5.738,0,0,1,598.442-513.289Z" transform="translate(-581.15 513.289)" fill="url(#linear-gradient)"/>
      <path id="Path_7265" data-name="Path 7265" d="M591.3-501.117a3.845,3.845,0,0,1-3.889-3.838,3.855,3.855,0,0,1,3.907-3.923,3.906,3.906,0,0,1,3.865,3.893A3.889,3.889,0,0,1,591.3-501.117Z" transform="translate(-585.104 516.648)" fill="url(#linear-gradient)"/>
      <path id="Path_7266" data-name="Path 7266" d="M603.817-501.119a3.839,3.839,0,0,1-3.881-3.847,3.852,3.852,0,0,1,3.916-3.912,3.92,3.92,0,0,1,3.859,3.9A3.9,3.9,0,0,1,603.817-501.119Z" transform="translate(-575.565 516.648)" fill="url(#linear-gradient)"/>
      <path id="Path_7267" data-name="Path 7267" d="M592.938-496.35h-6.759c-.715-4.5,3.588-8.348,7.687-6.963a27.739,27.739,0,0,0-.895,3.433A26.947,26.947,0,0,0,592.938-496.35Z" transform="translate(-586.1 520.668)" fill="url(#linear-gradient)"/>
      <path id="Path_7268" data-name="Path 7268" d="M602.449-496.326l-1.113-7.071a5.6,5.6,0,0,1,5.332,1.268,6.514,6.514,0,0,1,2.271,5.8Z" transform="translate(-574.499 520.651)" fill="url(#linear-gradient)"/>
    </g>
  </g>
</svg>
