<svg xmlns="http://www.w3.org/2000/svg" width="20.084" height="20.084" viewBox="0 0 20.084 20.084">
  <path id="Icon_awesome-linkedin" data-name="Icon awesome-linkedin" d="M18.65,2.25H1.43A1.441,1.441,0,0,0,0,3.7V20.886a1.441,1.441,0,0,0,1.43,1.448H18.65a1.445,1.445,0,0,0,1.435-1.448V3.7A1.445,1.445,0,0,0,18.65,2.25ZM6.07,19.465H3.093V9.88H6.075v9.585ZM4.582,8.571A1.726,1.726,0,1,1,6.308,6.845,1.727,1.727,0,0,1,4.582,8.571ZM17.229,19.465H14.252V14.8c0-1.112-.022-2.542-1.547-2.542-1.551,0-1.789,1.21-1.789,2.461v4.743H7.94V9.88H10.8v1.309h.04a3.135,3.135,0,0,1,2.82-1.547c3.013,0,3.573,1.986,3.573,4.568Z" transform="translate(0 -2.25)" fill="#21ccc8"/>
</svg>
