<svg id="Group_3602" data-name="Group 3602" xmlns="http://www.w3.org/2000/svg" xmlns:xlink="http://www.w3.org/1999/xlink" width="22.275" height="28.698" viewBox="0 0 22.275 28.698">
  <defs>
    <linearGradient id="linear-gradient" x1="0.5" x2="0.5" y2="1" gradientUnits="objectBoundingBox">
      <stop offset="0" stop-color="#9b5feb"/>
      <stop offset="0.324" stop-color="#6941bf"/>
      <stop offset="0.499" stop-color="#5435ad"/>
      <stop offset="0.626" stop-color="#462ca1"/>
      <stop offset="0.845" stop-color="#332191"/>
      <stop offset="1" stop-color="#2d1e8c"/>
    </linearGradient>
  </defs>
  <g id="Group_3601" data-name="Group 3601" transform="translate(0)">
    <path id="Path_7256" data-name="Path 7256" d="M684.316-512.1v2.3c-.729,0-1.453,0-2.179,0a2.248,2.248,0,0,0-2.477,2.478q0,6.27,0,12.54c0,1.756.816,2.591,2.547,2.589h12.607a2.164,2.164,0,0,0,2.466-2.44q.008-6.336,0-12.674a2.223,2.223,0,0,0-2.5-2.5h-2.7v-2.181a23.739,23.739,0,0,1,4.1.044,4.21,4.21,0,0,1,3.437,4.252c.028,4.469.037,8.94,0,13.407a4.416,4.416,0,0,1-4.5,4.409q-6.669.013-13.34.007a4.441,4.441,0,0,1-4.416-4.411q-.005-6.669,0-13.34a4.406,4.406,0,0,1,4.471-4.479C682.653-512.106,683.469-512.1,684.316-512.1Z" transform="translate(-677.363 518.567)" fill="url(#linear-gradient)"/>
    <path id="Path_7257" data-name="Path 7257" d="M680.9-500.508h1.947v-.927c0-3.111-.012-6.222,0-9.334a5.066,5.066,0,0,1,3.865-4.832,4.976,4.976,0,0,1,5.617,2.29c.141.241.248.5.349.708a7.186,7.186,0,0,0-1.617-.791,2.317,2.317,0,0,0-2.873,2.341c-.055,3.444-.012,6.889-.007,10.335,0,.039.03.078.076.185h1.816l-4.682,4.966Z" transform="translate(-674.667 515.773)" fill="url(#linear-gradient)"/>
  </g>
</svg>
