<svg xmlns="http://www.w3.org/2000/svg" width="18.301" height="18.26" viewBox="0 0 18.301 18.26">
  <g id="Group_5551" data-name="Group 5551" transform="translate(-34 -674.42)">
    <path id="Path_9058" data-name="Path 9058" d="M167.045,162.121q0-2.954,0-5.908c0-.156.042-.194.195-.193q1.624.01,3.247,0c.148,0,.189.039.186.187-.01.457,0,.915,0,1.372,0,.036-.02.085.027.1s.063-.03.082-.062a3.8,3.8,0,0,1,2.754-1.82,5.452,5.452,0,0,1,2.911.285,3.379,3.379,0,0,1,2,2.143,8.755,8.755,0,0,1,.434,2.931c.01,2.293.005,4.586.008,6.879,0,.11,0,.181-.151.18q-1.724-.013-3.448,0c-.159,0-.2-.033-.2-.2q.008-3.138,0-6.276a4.6,4.6,0,0,0-.215-1.5,1.622,1.622,0,0,0-1.552-1.185,2.9,2.9,0,0,0-.962.084,1.85,1.85,0,0,0-1.3,1.28,5.277,5.277,0,0,0-.231,1.716q-.007,2.946,0,5.891c0,.16-.047.189-.2.188q-1.7-.01-3.4,0c-.156,0-.18-.047-.18-.187q.007-2.954,0-5.908" transform="translate(-126.577 524.461)" fill="#fefefe"/>
    <path id="Path_9059" data-name="Path 9059" d="M63.821,160.735c.051-.049.116-.032.175-.032,1.144,0,2.287,0,3.431,0,.152,0,.182.045.182.188q-.006,5.907,0,11.814c0,.148-.029.2-.19.195-1.143-.008-2.287,0-3.431,0a.3.3,0,0,1-.163-.02c-.051-.045-.026-.1-.026-.157q0-5.911,0-11.821c0-.053-.021-.112.022-.16" transform="translate(-29.531 519.782)" fill="#fefefe"/>
    <path id="Path_9060" data-name="Path 9060" d="M59.44,62a2.2,2.2,0,1,1,2.2,2.2,2.2,2.2,0,0,1-2.2-2.2" transform="translate(-25.439 614.626)" fill="#fefefe"/>
  </g>
</svg>
