<svg xmlns="http://www.w3.org/2000/svg" width="21.225" height="21.225" viewBox="0 0 21.225 21.225">
  <g id="Group_5797" data-name="Group 5797" transform="translate(-31.173 -369.511)">
    <path id="Icon_awesome-link" data-name="Icon awesome-link" d="M13.539,7.685a6.3,6.3,0,0,1,.015,8.9l-.015.015-2.786,2.786a6.3,6.3,0,0,1-8.911-8.911L3.381,8.933a.663.663,0,0,1,1.131.44,7.639,7.639,0,0,0,.4,2.186.667.667,0,0,1-.157.689l-.543.543a2.985,2.985,0,1,0,4.194,4.248l2.786-2.785a2.984,2.984,0,0,0,0-4.221,3.105,3.105,0,0,0-.429-.355.665.665,0,0,1-.288-.523,1.651,1.651,0,0,1,.485-1.236l.873-.873a.666.666,0,0,1,.853-.072,6.321,6.321,0,0,1,.851.713Zm5.842-5.843a6.308,6.308,0,0,0-8.911,0L7.685,4.628l-.015.015a6.3,6.3,0,0,0,.866,9.609.666.666,0,0,0,.853-.072l.873-.873a1.651,1.651,0,0,0,.485-1.236.665.665,0,0,0-.288-.523,3.105,3.105,0,0,1-.429-.355,2.984,2.984,0,0,1,0-4.221l2.786-2.785A2.985,2.985,0,1,1,17.01,8.435l-.543.543a.667.667,0,0,0-.157.689,7.639,7.639,0,0,1,.4,2.186.663.663,0,0,0,1.131.44l1.538-1.538a6.308,6.308,0,0,0,0-8.911Z" transform="translate(31.173 369.511)" fill="#21ccc8"/>
  </g>
</svg>
