<svg xmlns="http://www.w3.org/2000/svg" width="25.182" height="19.08" viewBox="0 0 25.182 19.08">
  <g id="Group_5797" data-name="Group 5797" transform="translate(-965.664 1907.675)">
    <path id="Path_1393" data-name="Path 1393" d="M967.5-1891.275c.161-.592.291-1.072.419-1.553.124-.459.242-.918.359-1.367a17.521,17.521,0,0,1-1.65-.645,1.672,1.672,0,0,1-.961-1.655c.034-2.729.014-5.458.014-8.187a2.792,2.792,0,0,1,2.955-2.98c1.742-.026,3.487-.007,5.23-.007q5.079,0,10.158,0a2.6,2.6,0,0,1,2.929,2.932q0,4.017,0,8.035a2.077,2.077,0,0,1-2.169,2.351c-1.058.071-2.121.042-3.183.044-2.628.005-5.257-.023-7.883.023a3.772,3.772,0,0,0-1.634.435C970.566-1893.051,969.093-1892.177,967.5-1891.275Zm14.12-11.437a1.388,1.388,0,0,0-1.438,1.413,1.41,1.41,0,0,0,1.413,1.372,1.466,1.466,0,0,0,1.5-1.383A1.453,1.453,0,0,0,981.618-1902.712Zm-9.151,1.41a1.452,1.452,0,0,0-1.387-1.41,1.4,1.4,0,0,0-1.519,1.33,1.4,1.4,0,0,0,1.4,1.456A1.455,1.455,0,0,0,972.466-1901.3Zm3.829-1.41a1.388,1.388,0,0,0-1.427,1.426,1.4,1.4,0,0,0,1.424,1.36,1.454,1.454,0,0,0,1.487-1.4A1.447,1.447,0,0,0,976.3-1902.712Z" transform="translate(0 0)" fill="#a1a1a1"/>
    <path id="Path_1394" data-name="Path 1394" d="M969.707-1895.326h.922q6.174,0,12.347,0c1.659,0,2.379-.726,2.383-2.411.005-2.044,0-4.089,0-6.135v-.8c1.662-.334,2.383.239,2.385,1.825q.005,3.712,0,7.422c0,1.662-.242,2-1.862,2.536l.48,2.061c-1.118-.632-2.121-1.24-3.165-1.771a3.321,3.321,0,0,0-1.418-.38c-3.105-.034-6.211-.011-9.316-.021a2.528,2.528,0,0,1-2.639-1.618A6.312,6.312,0,0,1,969.707-1895.326Z" transform="translate(3.099 2.232)" fill="#a1a1a1"/>
  </g>
</svg>
