<svg xmlns="http://www.w3.org/2000/svg" width="24.057" height="22.324" viewBox="0 0 24.057 22.324">
  <path id="Icon_simple-microsoftoutlook" data-name="Icon simple-microsoftoutlook" d="M24.057,7.835v10.5a.771.771,0,0,1-.239.577.8.8,0,0,1-.581.231H14.67V12.17l1.6,1.232a.574.574,0,0,0,.38.126.619.619,0,0,0,.39-.127ZM14.67,5.809h8.567A.807.807,0,0,1,23.782,6a.709.709,0,0,1,.249.511L16.644,12.4,14.67,10.85V5.809ZM13.436,1.3V23.62L0,21.3V3.682L13.438,1.3h0ZM9.377,12.5A4.661,4.661,0,0,0,8.5,9.682,2.719,2.719,0,0,0,6.36,8.515,2.732,2.732,0,0,0,4.255,9.682,4.6,4.6,0,0,0,3.383,12.5a4.574,4.574,0,0,0,.887,2.8,2.776,2.776,0,0,0,2.106,1.179,2.765,2.765,0,0,0,2.15-1.173,4.6,4.6,0,0,0,.887-2.8H9.377ZM6.25,10.015a1.342,1.342,0,0,1,1.086.719,3.289,3.289,0,0,1,.436,1.756,3.324,3.324,0,0,1-.436,1.775,1.3,1.3,0,0,1-1.1.706,1.285,1.285,0,0,1-1.1-.692A3.179,3.179,0,0,1,4.7,12.521a3.094,3.094,0,0,1,.436-1.744,1.382,1.382,0,0,1,1.084-.723Z" transform="translate(0 -1.296)" fill="#21ccc8"/>
</svg>
