<svg xmlns="http://www.w3.org/2000/svg" width="25.767" height="22.463" viewBox="0 0 25.767 22.463">
  <g id="Group_5953" data-name="Group 5953" transform="translate(-21.174 -432.041)">
    <g id="Group_5419" data-name="Group 5419" transform="translate(21.174 432.041)">
      <path id="Path_1058" data-name="Path 1058" d="M408.829-1930.354a5.315,5.315,0,0,0-5.309,5.309,5.439,5.439,0,0,0,.857,2.942l3.815,5.863a.76.76,0,0,0,.636.345.758.758,0,0,0,.636-.345l3.817-5.863a5.449,5.449,0,0,0,.856-2.942,5.314,5.314,0,0,0-5.309-5.309Zm3.181,7.423-3.181,4.888-3.181-4.888a3.919,3.919,0,0,1-.611-2.115,3.8,3.8,0,0,1,3.792-3.793,3.8,3.8,0,0,1,3.792,3.793,3.908,3.908,0,0,1-.611,2.115Zm0,0" transform="translate(-396.207 1930.354)"/>
      <path id="Path_1059" data-name="Path 1059" d="M408.109-1928.041a2.278,2.278,0,0,0-2.275,2.276,2.278,2.278,0,0,0,2.275,2.275,2.279,2.279,0,0,0,2.276-2.275,2.279,2.279,0,0,0-2.276-2.276Zm0,3.034a.758.758,0,0,1-.758-.758.759.759,0,0,1,.758-.759.76.76,0,0,1,.759.759.759.759,0,0,1-.759.758Zm0,0" transform="translate(-395.473 1931.708)"/>
      <path id="Path_1060" data-name="Path 1060" d="M415.795-1920.768a10.018,10.018,0,0,0-5.609-2.514l.139-.792a10.788,10.788,0,0,1,6.07,2.769Z" transform="translate(-392.789 1933.896)"/>
      <path id="Path_1061" data-name="Path 1061" d="M400.764-1920.69l-.616-.517c1.1-1.315,3.3-2.354,6.023-2.85l.146.793C403.772-1922.8,401.749-1921.862,400.764-1920.69Z" transform="translate(-398.51 1933.912)"/>
      <path id="Path_1062" data-name="Path 1062" d="M409-1915.2c-5.206-.251-9.185-2.31-9.462-4.894l.8-.085c.231,2.15,3.971,3.945,8.7,4.176Z" transform="translate(-398.699 1936.62)"/>
      <path id="Path_1063" data-name="Path 1063" d="M408.53-1915.232l-.046-.8c4.508-.257,8.165-2,8.508-4.051l.795.133C417.369-1917.461,413.563-1915.519,408.53-1915.232Z" transform="translate(-393.319 1936.647)"/>
      <g id="Group_1089" data-name="Group 1089" transform="translate(0 12.824)">
        <path id="Path_1064" data-name="Path 1064" d="M400.409-1922.132a1.509,1.509,0,0,0-1.51,1.509,1.511,1.511,0,0,0,1.51,1.51,1.51,1.51,0,0,0,1.509-1.51A1.508,1.508,0,0,0,400.409-1922.132Zm0,2.277a.769.769,0,0,1-.768-.768.767.767,0,0,1,.768-.767.767.767,0,0,1,.767.767A.768.768,0,0,1,400.409-1919.855Z" transform="translate(-398.899 1922.132)"/>
      </g>
      <g id="Group_1090" data-name="Group 1090" transform="translate(22.747 12.824)">
        <path id="Path_1065" data-name="Path 1065" d="M415.776-1922.132a1.508,1.508,0,0,0-1.509,1.509,1.51,1.51,0,0,0,1.509,1.51,1.511,1.511,0,0,0,1.51-1.51A1.509,1.509,0,0,0,415.776-1922.132Zm0,2.277a.768.768,0,0,1-.767-.768.767.767,0,0,1,.767-.767.767.767,0,0,1,.768.767A.769.769,0,0,1,415.776-1919.855Z" transform="translate(-414.267 1922.132)"/>
      </g>
      <g id="Group_1091" data-name="Group 1091" transform="translate(11.13 19.442)">
        <path id="Path_1066" data-name="Path 1066" d="M407.927-1917.889a1.51,1.51,0,0,0-1.509,1.51,1.51,1.51,0,0,0,1.509,1.51,1.511,1.511,0,0,0,1.51-1.51A1.511,1.511,0,0,0,407.927-1917.889Zm0,2.278a.767.767,0,0,1-.767-.767.768.768,0,0,1,.767-.768.768.768,0,0,1,.768.768A.767.767,0,0,1,407.927-1915.612Z" transform="translate(-406.418 1917.889)"/>
      </g>
    </g>
  </g>
</svg>
