<svg xmlns="http://www.w3.org/2000/svg" width="19.686" height="23.265" viewBox="0 0 19.686 23.265">
  <path id="Icon_ionic-md-notifications-outline" data-name="Icon ionic-md-notifications-outline" d="M15.524,7.428a8.085,8.085,0,0,1,1.337.25,5.7,5.7,0,0,1,4.344,5.584V20.4l.521.524.436.438H8.774l.436-.437.521-.524V13.263a5.7,5.7,0,0,1,4.344-5.584,9.9,9.9,0,0,1,1.337-.25m.056-4.053A1.71,1.71,0,0,0,13.731,5.12v.814a7.54,7.54,0,0,0-5.79,7.328v6.4L5.625,21.987V23.15H25.311V21.987L22.995,19.66v-6.4A7.54,7.54,0,0,0,17.2,5.934V5.12a1.71,1.71,0,0,0-1.737-1.745Zm2.316,20.938H13.152a2.316,2.316,0,1,0,4.632,0Z" transform="translate(-5.625 -3.375)" fill="#4d31a7"/>
</svg>
