<svg xmlns="http://www.w3.org/2000/svg" width="16.894" height="21.169" viewBox="0 0 16.894 21.169">
  <g id="Group_1679" data-name="Group 1679" transform="translate(0 0)">
    <g id="Group_1678" data-name="Group 1678" transform="translate(0)">
      <path id="Path_2101" data-name="Path 2101" d="M2305.912-2121.258h-11.3a1.669,1.669,0,0,1-1.666-1.666v-.248a1.669,1.669,0,0,1,1.666-1.669h11.3v1.12h-11.3a.548.548,0,0,0-.546.549v.248a.546.546,0,0,0,.546.547h11.3Z" transform="translate(-2292.943 2133.423)" fill="#a1a1a1"/>
      <path id="Path_2102" data-name="Path 2102" d="M2299.744-2121.258v-1.119a.546.546,0,0,0,.547-.547v-.248a.548.548,0,0,0-.547-.549v-1.12a1.669,1.669,0,0,1,1.666,1.669v.248A1.669,1.669,0,0,1,2299.744-2121.258Z" transform="translate(-2284.517 2133.423)" fill="#a1a1a1"/>
      <path id="Path_2103" data-name="Path 2103" d="M2305.29-2118.971h-11.845v-9.7h14.644v9.142h-1.119v-8.023h-12.4v7.463h10.725Z" transform="translate(-2292.32 2128.673)" fill="#a1a1a1"/>
      <g id="Group_1677" data-name="Group 1677" transform="translate(7.383 11.604)">
        <rect id="Rectangle_305" data-name="Rectangle 305" width="1.12" height="2.801" fill="#a1a1a1"/>
        <rect id="Rectangle_306" data-name="Rectangle 306" width="1.12" height="2.805" transform="translate(1.006)" fill="#a1a1a1"/>
      </g>
      <path id="Path_2104" data-name="Path 2104" d="M2300.466-2128.439H2293.7v2.707h1.151a1.105,1.105,0,0,1,1.106,1.105v1.445a1.106,1.106,0,0,0,1.106,1.106h.045a1.105,1.105,0,0,0,1.106-1.106v-1.935a1.105,1.105,0,0,1,1.106-1.106h.045a1.105,1.105,0,0,1,1.106,1.106v1.021a1.067,1.067,0,0,0,1.106,1.023h.045a1.107,1.107,0,0,0,1.106-1.106V-2126a1.107,1.107,0,0,1,1.106-1.108h.045a1.108,1.108,0,0,1,1.106,1.108v9.377a1.106,1.106,0,0,0,1.106,1.106h.029a1.108,1.108,0,0,0,1.106-1.106v-11.815h-6.755Z" transform="translate(-2292.011 2128.964)" fill="#a1a1a1"/>
      <path id="Path_2105" data-name="Path 2105" d="M2300.177-2117.568a1.674,1.674,0,0,1-1.692-1.666v-1.377a1.669,1.669,0,0,1,1.667-1.666,1.673,1.673,0,0,1,1.691,1.666v1.377A1.667,1.667,0,0,1,2300.177-2117.568Zm0-3.59a.553.553,0,0,0-.573.547v1.377a.547.547,0,0,0,.548.546.552.552,0,0,0,.571-.546v-1.377A.546.546,0,0,0,2300.177-2121.158Z" transform="translate(-2286.076 2136.6)" fill="#a1a1a1"/>
      <path id="Path_2106" data-name="Path 2106" d="M2297.659-2115.166a1.675,1.675,0,0,1-1.694-1.668v-3.99a1.668,1.668,0,0,1,1.665-1.666,1.674,1.674,0,0,1,1.695,1.666v3.99A1.669,1.669,0,0,1,2297.659-2115.166Zm0-6.2a.552.552,0,0,0-.575.546v3.99a.547.547,0,0,0,.546.549.555.555,0,0,0,.575-.549v-3.99A.546.546,0,0,0,2297.659-2121.371Z" transform="translate(-2289.199 2136.335)" fill="#a1a1a1"/>
    </g>
  </g>
</svg>
