<svg xmlns="http://www.w3.org/2000/svg" xmlns:xlink="http://www.w3.org/1999/xlink" width="17.304" height="17.303" viewBox="0 0 17.304 17.303">
  <defs>
    <linearGradient id="linear-gradient" x1="0.5" x2="0.5" y2="1" gradientUnits="objectBoundingBox">
      <stop offset="0" stop-color="#9b5feb"/>
      <stop offset="0.324" stop-color="#6941bf"/>
      <stop offset="0.499" stop-color="#5435ad"/>
      <stop offset="0.626" stop-color="#462ca1"/>
      <stop offset="0.845" stop-color="#332191"/>
      <stop offset="1" stop-color="#2d1e8c"/>
    </linearGradient>
  </defs>
  <path id="Icon_ionic-ios-call" data-name="Icon ionic-ios-call" d="M21.295,18.051a14.535,14.535,0,0,0-3.036-2.032c-.91-.437-1.243-.428-1.887.036-.536.387-.883.748-1.5.613a8.949,8.949,0,0,1-3.014-2.23,8.884,8.884,0,0,1-2.23-3.014c-.131-.622.23-.964.613-1.5.464-.644.478-.978.036-1.887A14.247,14.247,0,0,0,8.244,5c-.662-.662-.811-.518-1.176-.387a6.69,6.69,0,0,0-1.077.572A3.248,3.248,0,0,0,4.7,6.551c-.257.554-.554,1.586.96,4.28a23.879,23.879,0,0,0,4.2,5.6h0l0,0,0,0h0a23.972,23.972,0,0,0,5.6,4.2c2.694,1.514,3.725,1.216,4.28.96A3.192,3.192,0,0,0,21.11,20.3a6.691,6.691,0,0,0,.572-1.077C21.813,18.862,21.961,18.713,21.295,18.051Z" transform="translate(-4.49 -4.503)" fill="url(#linear-gradient)"/>
</svg>
