<svg xmlns="http://www.w3.org/2000/svg" xmlns:xlink="http://www.w3.org/1999/xlink" width="19.572" height="25.891" viewBox="0 0 19.572 25.891">
  <defs>
    <linearGradient id="linear-gradient" x1="0.5" x2="0.5" y2="1" gradientUnits="objectBoundingBox">
      <stop offset="0" stop-color="#9b5feb"/>
      <stop offset="0.324" stop-color="#6941bf"/>
      <stop offset="0.499" stop-color="#5435ad"/>
      <stop offset="0.626" stop-color="#462ca1"/>
      <stop offset="0.845" stop-color="#332191"/>
      <stop offset="1" stop-color="#2d1e8c"/>
    </linearGradient>
  </defs>
  <g id="Group_3637" data-name="Group 3637" transform="translate(0)">
    <path id="Path_7309" data-name="Path 7309" d="M635.655-469.381h17.252c-.192,2.609-.379,5.189-.572,7.77-.222,2.938-.442,5.878-.677,8.816a12.348,12.348,0,0,1-.266,2.156,3.051,3.051,0,0,1-3.019,2.262q-4.1.005-8.2,0a3.152,3.152,0,0,1-3.149-2.845c-.261-3.134-.483-6.269-.717-9.4C636.088-463.526,635.875-466.425,635.655-469.381Zm5.205,18.415q-.211-5.948-.424-11.9c-.039-1.078-.069-2.16-.129-3.238a.823.823,0,0,0-.784-.874c-.4-.032-.714.373-.722.9-.005.275.011.55.025.824.106,2.1.217,4.2.321,6.3.13,2.686.25,5.374.386,8.062.03.587.321.9.761.84C640.841-450.117,640.9-450.524,640.86-450.966Zm7.1-7.428h.011q-.145,3.739-.289,7.478c-.018.456.09.861.636.868.571.005.692-.423.715-.89q.3-6.18.606-12.359c.046-.941.09-1.883.116-2.825a.73.73,0,0,0-.652-.84c-.5-.053-.731.3-.842.738a2.292,2.292,0,0,0-.025.469Q648.1-462.075,647.957-458.395Zm-3.023-.035h.1q0-3.744,0-7.488c0-.655-.306-1.073-.763-1.069s-.743.433-.75,1.087c0,.157,0,.315,0,.472q.034,4.51.07,9.021c.014,1.846.009,3.694.053,5.542a1.133,1.133,0,0,0,.407.756.7.7,0,0,0,.664-.139,1.219,1.219,0,0,0,.21-.752C644.94-453.478,644.934-455.955,644.934-458.43Z" transform="translate(-634.515 474.265)" fill="url(#linear-gradient)"/>
    <path id="Path_7310" data-name="Path 7310" d="M654.58-468.24H635.04a1.509,1.509,0,0,1,1.555-1.918c1.376-.014,2.753-.011,4.129,0,.326,0,.506-.034.6-.44a1.821,1.821,0,0,1,2.031-1.554q1.445,0,2.891,0a1.811,1.811,0,0,1,1.985,1.538c.088.386.236.461.585.458,1.3-.016,2.595-.007,3.891-.005S654.543-469.635,654.58-468.24Z" transform="translate(-635.008 472.154)" fill="url(#linear-gradient)"/>
  </g>
</svg>
