<svg xmlns="http://www.w3.org/2000/svg" width="21.666" height="21.665" viewBox="0 0 21.666 21.665">
  <path id="Path_420" data-name="Path 420" d="M58.4,980.106l-.061-.029a9.57,9.57,0,0,0-1.107-.466L57.2,979.6a9.568,9.568,0,0,0-6.081-.007l-.043.018a9.085,9.085,0,0,0-1.107.462l-.043.022a8.743,8.743,0,0,0-4.268,4.257l-.029.061a8.508,8.508,0,0,0-.462,1.107l-.011.025a9.562,9.562,0,0,0,0,6.1l.011.029a8.555,8.555,0,0,0,.462,1.093l.125.258a8.684,8.684,0,0,0,4.117,4.045l.107.05a9.377,9.377,0,0,0,1.1.459l.039.015a9.533,9.533,0,0,0,6.084,0l.029-.011a10.085,10.085,0,0,0,1.107-.462l.061-.032a10.593,10.593,0,0,0,1.046-.609l4.289,4.289,2.591-2.591-4.289-4.286a12.263,12.263,0,0,0,.62-1.068l.022-.046a9.561,9.561,0,0,0,.462-1.1l.014-.051a9.528,9.528,0,0,0,0-6.059l-.014-.046a9.638,9.638,0,0,0-.462-1.107l-.022-.043a8.755,8.755,0,0,0-4.257-4.264Zm.211,12.943a6.3,6.3,0,1,1,0-8.9A6.3,6.3,0,0,1,58.613,993.049Z" transform="translate(-44.662 -979.102)" fill="#fff"/>
</svg>
