<svg xmlns="http://www.w3.org/2000/svg" xmlns:xlink="http://www.w3.org/1999/xlink" width="21.522" height="21.526" viewBox="0 0 21.522 21.526">
  <defs>
    <clipPath id="clip-path">
      <rect id="Rectangle_1568" data-name="Rectangle 1568" width="21.522" height="21.526" fill="#b3b3b3"/>
    </clipPath>
  </defs>
  <g id="Group_5950" data-name="Group 5950" transform="translate(-68.609 -297.662)">
    <g id="Group_5547" data-name="Group 5547" transform="translate(68.609 297.662)">
      <g id="Group_5546" data-name="Group 5546" clip-path="url(#clip-path)">
        <path id="Path_10378" data-name="Path 10378" d="M64.8,52.655c-.4,0-.753,0-1.106,0a.163.163,0,0,1-.093-.036,6.531,6.531,0,0,0-1.647-.772c-.709-.3-1.407-.622-2.109-.936a2.105,2.105,0,0,1-1.237-1.634,17.346,17.346,0,0,1-.207-1.863.637.637,0,0,1,.172-.4,9.635,9.635,0,0,0,1.754-3.041.711.711,0,0,1,.265-.346,1.341,1.341,0,0,0,.675-1.382,14.769,14.769,0,0,1,.052-2.4c.007-.33.051-.659.065-.989a2.894,2.894,0,0,0-2.86-2.8,2.1,2.1,0,0,0-.559.151.5.5,0,0,1-.528-.045,4.106,4.106,0,0,0-4.692.4,3,3,0,0,0-1.076,2.571c.053.82.112,1.64.157,2.461a2.9,2.9,0,0,1-.055.476,1.479,1.479,0,0,0,.692,1.571.632.632,0,0,1,.234.313,9.319,9.319,0,0,0,1.78,3.082.584.584,0,0,1,.15.334,6.5,6.5,0,0,1-.311,2.253A1.922,1.922,0,0,1,53.3,50.838c-.791.363-1.592.705-2.382,1.07-.452.209-.89.445-1.335.668a.491.491,0,0,1-.181.08c-.379.007-.758,0-1.2,0,.093-.111.146-.18.206-.243A5.694,5.694,0,0,1,50.5,51.1c.736-.3,1.457-.634,2.19-.942a1.394,1.394,0,0,0,.862-1.112c.08-.449.125-.9.168-1.359a.424.424,0,0,0-.1-.267,10.963,10.963,0,0,1-1.687-2.94.473.473,0,0,0-.136-.2,2.45,2.45,0,0,1-.934-2.217c.023-.589,0-1.181-.022-1.772a8.767,8.767,0,0,1,0-2.178,4.085,4.085,0,0,1,2.672-3.026,4.84,4.84,0,0,1,3.526-.12,2.913,2.913,0,0,0,1.46.2,3.092,3.092,0,0,1,2.565,1,3.712,3.712,0,0,1,1.188,3.26c-.078.69-.1,1.386-.14,2.079a2.109,2.109,0,0,0,.029.377,2.422,2.422,0,0,1-.883,2.379.582.582,0,0,0-.166.241,10.8,10.8,0,0,1-1.68,2.915.386.386,0,0,0-.109.24c.077.568.154,1.137.266,1.7a.938.938,0,0,0,.561.683c.849.378,1.693.768,2.555,1.117a4.127,4.127,0,0,1,1.952,1.267c.047.065.093.131.167.234" transform="translate(-45.75 -32.919)" fill="#b3b3b3"/>
        <path id="Path_10379" data-name="Path 10379" d="M.051,0H2.71V.882H.945V2.663H.051Z" transform="translate(-0.048 0)" fill="#b3b3b3"/>
        <path id="Path_10380" data-name="Path 10380" d="M372.84,2.736h-.874V.962h-1.781V.067h2.655Z" transform="translate(-351.323 -0.064)" fill="#b3b3b3"/>
        <path id="Path_10381" data-name="Path 10381" d="M2.671,372.006v.9H0v-2.657H.88v1.762Z" transform="translate(0 -351.379)" fill="#b3b3b3"/>
        <path id="Path_10382" data-name="Path 10382" d="M371.983,372v-1.781h.886v2.663h-2.659V372Z" transform="translate(-351.348 -351.355)" fill="#b3b3b3"/>
      </g>
    </g>
  </g>
</svg>
