<svg id="Group_2249" data-name="Group 2249" xmlns="http://www.w3.org/2000/svg" width="26.054" height="21.783" viewBox="0 0 26.054 21.783">
  <path id="Path_3070" data-name="Path 3070" d="M332.674-1408.362a.8.8,0,0,1-.275-.052.751.751,0,0,1-.474-.7v-2.3H320.348a.75.75,0,0,1-.749-.747.75.75,0,0,1,.749-.749h12.326a.75.75,0,0,1,.747.749v1.139l4.349-4.691-4.349-4.687v1.139a.749.749,0,0,1-.747.747H321.1v2.3a.751.751,0,0,1-.474.7.763.763,0,0,1-.822-.19l-6.119-6.591a.749.749,0,0,1,0-1.016l6.119-6.595a.749.749,0,0,1,.822-.188.748.748,0,0,1,.474.7v2.3h11.576a.75.75,0,0,1,.747.749.749.749,0,0,1-.747.747H320.348a.75.75,0,0,1-.749-.747v-1.139l-4.349,4.689,4.349,4.689v-1.139a.75.75,0,0,1,.749-.749h11.576v-2.3a.748.748,0,0,1,.474-.7.75.75,0,0,1,.822.188l6.119,6.593a.75.75,0,0,1,0,1.014l-6.119,6.595A.751.751,0,0,1,332.674-1408.362Z" transform="translate(-313.483 1430.145)" fill="#235697"/>
</svg>
