<svg xmlns="http://www.w3.org/2000/svg" width="23.014" height="17.413" viewBox="0 0 23.014 17.413">
  <g id="Group_4589" data-name="Group 4589" transform="translate(-904.091 -520.088)">
    <g id="Group_4585" data-name="Group 4585" transform="translate(904.091 520.088)">
      <path id="Path_9051" data-name="Path 9051" d="M915.6,520.088h8.286a2.983,2.983,0,0,1,3.215,3.195q0,5.545,0,11.089a2.975,2.975,0,0,1-3.127,3.128H907.249a2.978,2.978,0,0,1-3.157-3.138q0-5.545,0-11.089a2.973,2.973,0,0,1,3.185-3.185Q911.44,520.086,915.6,520.088Zm.009,1.22c-2.827,0-5.655,0-8.482,0a1.645,1.645,0,0,0-1.4.709,2.293,2.293,0,0,0-.425,1.425q.009,4.378,0,8.756c0,.726-.014,1.453.006,2.179a1.853,1.853,0,0,0,1.766,1.9q8.521.006,17.042,0a1.581,1.581,0,0,0,1.254-.6,2.191,2.191,0,0,0,.508-1.474q-.005-3,0-5.993c0-1.647.009-3.295,0-4.942a1.864,1.864,0,0,0-1.981-1.964Z" transform="translate(-904.091 -520.088)" fill="#a1a1a1"/>
    </g>
    <g id="Group_4586" data-name="Group 4586" transform="translate(916.027 524.432)">
      <path id="Path_9052" data-name="Path 9052" d="M1065.314,581.182h-7.834v-5.269h7.834Zm-7.211-.622h6.589v-4.024H1058.1Z" transform="translate(-1057.48 -575.913)" fill="#a1a1a1"/>
    </g>
    <g id="Group_4587" data-name="Group 4587" transform="translate(907.252 529.079)">
      <rect id="Rectangle_998" data-name="Rectangle 998" width="6.121" height="0.623" transform="translate(0 0)" fill="#a1a1a1"/>
    </g>
    <g id="Group_4588" data-name="Group 4588" transform="translate(907.252 531.119)">
      <rect id="Rectangle_999" data-name="Rectangle 999" width="4.987" height="0.623" transform="translate(0 0)" fill="#a1a1a1"/>
    </g>
  </g>
</svg>
