<svg xmlns="http://www.w3.org/2000/svg" width="36.115" height="28.022" viewBox="0 0 36.115 28.022">
  <g id="Group_252" data-name="Group 252" transform="translate(0 0)">
    <g id="Group_251" data-name="Group 251">
      <g id="Group_5955" data-name="Group 5955">
        <path id="Path_205" data-name="Path 205" d="M886.744,1186.787v-6.993a5.142,5.142,0,0,0-5.137-5.136h-7.374v-5.169a4.564,4.564,0,0,0-4.561-4.561H858.363a4.567,4.567,0,0,0-4.565,4.561v6.079l-1.446,4.616a.666.666,0,0,0,.167.665.664.664,0,0,0,.661.157l4.7-1.511h5.516c.055,0,.09-.045.143-.059-.01.12-.037.237-.037.359v6.245a5.142,5.142,0,0,0,5.135,5.139h13.547l5.4,1.74a.622.622,0,0,0,.2.033.645.645,0,0,0,.461-.19.66.66,0,0,0,.167-.665Zm-23.353-8.608h-5.618a.591.591,0,0,0-.2.035l-3.586,1.153,1.1-3.5a.691.691,0,0,0,.029-.2v-6.181a3.252,3.252,0,0,1,3.252-3.247h11.309a3.249,3.249,0,0,1,3.245,3.247v5.169h-4.286a5.122,5.122,0,0,0-4.894,3.666A.616.616,0,0,0,863.391,1178.178Zm19.092,11.717a.61.61,0,0,0-.2-.033H868.632a3.825,3.825,0,0,1-3.821-3.825v-6.245a3.825,3.825,0,0,1,3.821-3.823h12.976a3.825,3.825,0,0,1,3.821,3.823v7.093a.716.716,0,0,0,.031.2l1.314,4.19Zm-24.255-19.559a.658.658,0,0,1,.657-.657h9.924a.658.658,0,1,1,0,1.316h-9.924A.657.657,0,0,1,858.228,1170.337Zm6.279,3.743a.656.656,0,0,1-.657.655h-4.965a.657.657,0,1,1,0-1.314h4.965A.657.657,0,0,1,864.507,1174.08Zm14.1,7.081a3.031,3.031,0,0,1-2.376,2.956v1.2a.657.657,0,0,1-1.314,0v-1.781a.658.658,0,0,1,.659-.657,1.716,1.716,0,1,0-1.716-1.714.658.658,0,0,1-1.316,0,3.031,3.031,0,1,1,6.063,0Zm-2.56,5.6a.782.782,0,0,1,.188.483.617.617,0,0,1-.188.447.652.652,0,0,1-.484.22.775.775,0,0,1-.667-.667.651.651,0,0,1,.22-.483A.726.726,0,0,1,876.049,1186.764Z" transform="translate(-852.321 -1164.927)"/>
      </g>
    </g>
  </g>
</svg>
