<svg id="Group_5549" data-name="Group 5549" xmlns="http://www.w3.org/2000/svg" xmlns:xlink="http://www.w3.org/1999/xlink" width="22.593" height="19.255" viewBox="0 0 22.593 19.255">
  <defs>
    <clipPath id="clip-path">
      <rect id="Rectangle_1569" data-name="Rectangle 1569" width="22.593" height="19.255" fill="#b3b3b3"/>
    </clipPath>
  </defs>
  <g id="Group_5548" data-name="Group 5548" clip-path="url(#clip-path)">
    <path id="Path_10383" data-name="Path 10383" d="M180.716,102.976a4.192,4.192,0,0,0-3.855-4.166c-.559-.046-1.124-.069-1.693-.069-.547,0-1.1.021-1.646.064a4.29,4.29,0,0,0-.749.126c-.086.1-.176.2-.272.3a4.4,4.4,0,0,1-1.378.931l.272.02a5.321,5.321,0,0,1,.81.131,3.17,3.17,0,0,1,1.4-.444,19.967,19.967,0,0,1,3.169,0A3.143,3.143,0,0,1,179.653,103c.007.278.005.552,0,.841,0,.133,0,.265,0,.4l0,.892c0,.2,0,.408-.01.541l-.011.143-.134.052c-.136.053-.362.119-.544.173a12.172,12.172,0,0,1-2.815.473v1.065a13.337,13.337,0,0,0,3.112-.517,2.159,2.159,0,0,0,1.222-.612,2.06,2.06,0,0,0,.242-1.316l0-1.283c0-.286,0-.582,0-.876" transform="translate(-158.129 -91.243)" fill="#b3b3b3"/>
    <path id="Path_10384" data-name="Path 10384" d="M186.659,2.418a2.356,2.356,0,0,1,.467-.66,2.4,2.4,0,0,1,1.705-.693h0a2.411,2.411,0,0,1,1.716.717,2.379,2.379,0,0,1,.7,1.7,2.459,2.459,0,0,1-2.424,2.416h0a2.387,2.387,0,0,1-1.41-.464,4.275,4.275,0,0,1-.28,1.083,3.429,3.429,0,0,0,1.681.444h.009A3.478,3.478,0,1,0,188.838,0h-.008A3.435,3.435,0,0,0,185.9,1.595c.1.084.2.171.288.265a4.412,4.412,0,0,1,.469.558" transform="translate(-171.785 -0.001)" fill="#b3b3b3"/>
    <path id="Path_10385" data-name="Path 10385" d="M4.577,106.471a17.627,17.627,0,0,1-3.329-.659l-.159-.047,0-.165c-.028-.97-.028-1.83,0-2.63a3.161,3.161,0,0,1,2.925-3.105,19.967,19.967,0,0,1,3.169,0,3.112,3.112,0,0,1,1.369.442,5.269,5.269,0,0,1,.855-.139l.221-.015a4.356,4.356,0,0,1-1.638-1.226,4.3,4.3,0,0,0-.72-.122c-.559-.046-1.124-.069-1.693-.069-.547,0-1.1.021-1.646.064a4.2,4.2,0,0,0-2.748,1.31,4.332,4.332,0,0,0-1.157,2.818c-.03.865-.029,1.8,0,2.855a1.141,1.141,0,0,0,.7.977,18.7,18.7,0,0,0,3.859.776q-.009-.553-.006-1.07" transform="translate(0 -91.243)" fill="#b3b3b3"/>
    <path id="Path_10386" data-name="Path 10386" d="M31.251,6.957h.009A3.425,3.425,0,0,0,32.967,6.5a4.333,4.333,0,0,1-.273-1.094,2.39,2.39,0,0,1-1.434.486h0a2.415,2.415,0,1,1,0-4.829h0a2.433,2.433,0,0,1,2.171,1.352,4.3,4.3,0,0,1,.493-.59c.083-.083.17-.161.258-.236a3.522,3.522,0,0,0-.452-.559A3.468,3.468,0,0,0,31.27,0h-.008a3.478,3.478,0,0,0-.011,6.956" transform="translate(-25.683 -0.001)" fill="#b3b3b3"/>
    <path id="Path_10387" data-name="Path 10387" d="M78.791,128.591v-.229c0-.075,0-.151,0-.226,0-.256,0-.513-.005-.769a4.72,4.72,0,0,0-3.395-4.505c-.094-.027-.189-.051-.285-.072s-.191-.038-.288-.053c-.118-.018-.236-.034-.357-.044q-.476-.039-.957-.059l-.269-.008-.265-.007c-.144,0-.288,0-.432,0s-.282,0-.424,0l-.265.007-.269.008q-.456.018-.911.053c-.137.011-.273.028-.407.05q-.144.024-.285.056c-.095.021-.188.046-.281.073a4.686,4.686,0,0,0-2.11,1.291,4.862,4.862,0,0,0-1.3,3.163q-.014.387-.019.791c0,.075,0,.152,0,.228s0,.152,0,.229c0,.344,0,.7.007,1.066,0,.075,0,.152,0,.228s0,.152,0,.229c0,.157.008.316.013.477a1.218,1.218,0,0,0,.743,1.044,19.915,19.915,0,0,0,5.859.946,15.222,15.222,0,0,0,4.282-.606c.679-.2,1.088-.319,1.354-.671a1.847,1.847,0,0,0,.26-1.168c0-.073,0-.149,0-.23v-1.292Zm-1.081,1.934-.017.125-.115.052a6.842,6.842,0,0,1-.7.229,14.064,14.064,0,0,1-3.983.563,18.846,18.846,0,0,1-5.379-.848l-.158-.047-.005-.165c0-.109-.006-.216-.009-.322,0-.077,0-.154-.005-.23s0-.153,0-.228c-.006-.368-.009-.721-.007-1.064,0-.076,0-.152,0-.227s0-.152,0-.228q.006-.4.019-.78a3.676,3.676,0,0,1,3.145-3.58c.08-.012.161-.022.243-.028h.014l.232-.016c.376-.025.752-.043,1.127-.05l.239,0h.24l.138,0,.239,0q.565.011,1.123.05l.246.018.039,0c.069.006.137.014.205.023a3.658,3.658,0,0,1,3.143,3.619c.006.238.007.474.005.716q0,.113,0,.228c0,.005,0,.011,0,.016,0,.071,0,.142,0,.212s0,.161,0,.242v.532l0,.228v.293c0,.079,0,.155,0,.229a4.128,4.128,0,0,1-.019.435" transform="translate(-61.232 -113.303)" fill="#b3b3b3"/>
    <path id="Path_10388" data-name="Path 10388" d="M98.259,15.815a3.9,3.9,0,0,0-.318,1.277c-.008.1-.013.2-.013.3,0,.034,0,.067,0,.1a3.9,3.9,0,0,0,.233,1.244c.027.074.057.147.088.219s.064.141.1.209a3.9,3.9,0,0,0,2.155,1.907,3.879,3.879,0,0,0,1.289.226h.01a3.9,3.9,0,0,0,1.306-.229,3.932,3.932,0,0,0,1.433-.914l.026-.027a4.035,4.035,0,0,0,.3-.345,3.924,3.924,0,0,0,.393-.608q.054-.1.1-.208c.032-.071.062-.143.09-.216a3.83,3.83,0,0,0,.243-1.227c0-.037,0-.074,0-.111,0-.1,0-.191-.01-.286a3.83,3.83,0,0,0-.51-1.662,3.919,3.919,0,0,0-.608-.791c-.061-.061-.124-.12-.188-.176s-.12-.1-.181-.151-.123-.094-.186-.137a3.871,3.871,0,0,0-2.2-.688h-.008a3.883,3.883,0,0,0-2.215.682q-.095.066-.186.137c-.061.048-.121.1-.18.149s-.111.1-.164.153a3.841,3.841,0,0,0-.8,1.172m1.286-.11a2.76,2.76,0,0,1,.2-.242c.021-.022.041-.044.063-.066.044-.044.09-.086.137-.127a2.811,2.811,0,0,1,1.858-.685h.006a2.817,2.817,0,0,1,1.859.7c.051.044.1.09.149.139l.053.055a2.886,2.886,0,0,1,.205.243,2.774,2.774,0,0,1,.562,1.687,2.726,2.726,0,0,1-.034.415,2.76,2.76,0,0,1-.067.308q-.037.134-.087.263a2.883,2.883,0,0,1-2.648,1.841h0a2.823,2.823,0,0,1-2.637-1.852q-.048-.131-.084-.267a2.869,2.869,0,0,1,.462-2.412" transform="translate(-90.492 -12.495)" fill="#b3b3b3"/>
  </g>
</svg>
