<svg xmlns="http://www.w3.org/2000/svg" width="14.191" height="14.198" viewBox="0 0 14.191 14.198">
  <g id="Group_1465" data-name="Group 1465" transform="translate(-6619.883 -1366.504)">
    <path id="Path_951" data-name="Path 951" d="M6627.018,1380.7a7.1,7.1,0,1,1,7.057-7.163A7.142,7.142,0,0,1,6627.018,1380.7Zm-.053-13.137a6.038,6.038,0,1,0,6.048,6A5.995,5.995,0,0,0,6626.965,1367.564Z" transform="translate(0 0)" fill="#21ccc8"/>
    <path id="Path_952" data-name="Path 952" d="M6657.349,1380.044a2.24,2.24,0,0,1,.35.745,19.92,19.92,0,0,1,0,2.567,1.459,1.459,0,0,0,.863,1.629,10.217,10.217,0,0,1,1.773,1.161c.2.156.226.521.331.79-.307.033-.688.2-.906.076a30.033,30.033,0,0,1-2.676-1.722,1.138,1.138,0,0,1-.408-.783c-.043-1.209-.039-2.421,0-3.631a2.748,2.748,0,0,1,.315-.832Z" transform="translate(-30.209 -11.126)" fill="#21ccc8"/>
  </g>
</svg>
