<svg xmlns="http://www.w3.org/2000/svg" width="28" height="22" viewBox="0 0 28 22">
  <g id="Group_5949" data-name="Group 5949" transform="translate(-235 -170.224)">
    <g id="Group_5887" data-name="Group 5887" transform="translate(0 71.832)">
      <g id="Group_1331" data-name="Group 1331" transform="translate(-1446.59 2182.549)">
        <path id="Path_1513" data-name="Path 1513" d="M1689.515-2075.635c0-.718,0-1.436,0-2.153a.185.185,0,0,1,.129-.2c1.955-.865,3.909-1.736,5.866-2.6a.36.36,0,0,1,.265,0q2.936,1.294,5.868,2.6a.183.183,0,0,1,.131.2c0,1.319.028,2.637-.008,3.956a8.526,8.526,0,0,1-4.174,7.36,6.424,6.424,0,0,1-1.83.764.519.519,0,0,1-.248,0,7.733,7.733,0,0,1-4.075-2.729,8.635,8.635,0,0,1-1.847-4.31,10.141,10.141,0,0,1-.072-1.129C1689.507-2074.466,1689.515-2075.05,1689.515-2075.635Zm10.164.437-.962-.96-4.474,4.476-1.716-1.723-.932.913,2.689,2.689Z" transform="translate(0 0)" fill="#21ccc8"/>
      </g>
      <rect id="Rectangle_1738" data-name="Rectangle 1738" width="28" height="22" rx="11" transform="translate(235 98.393)" fill="none"/>
    </g>
  </g>
</svg>
